<svg width="20" height="20" viewBox="0 0 20 20" fill="none" xmlns="http://www.w3.org/2000/svg">
    <path d="M17.7665 7.95833L16.1915 7.43333L16.9332 5.95C17.0084 5.79474 17.0335 5.61997 17.0051 5.44981C16.9768 5.27965 16.8963 5.12249 16.7748 5L14.9998 3.225C14.8767 3.10174 14.718 3.02017 14.5461 2.99177C14.3742 2.96337 14.1977 2.98956 14.0415 3.06667L12.5582 3.80833L12.0332 2.23333C11.9777 2.06916 11.8725 1.92635 11.7321 1.82479C11.5917 1.72323 11.4231 1.66795 11.2498 1.66667H8.74984C8.57514 1.66622 8.40471 1.72068 8.26265 1.82237C8.12059 1.92405 8.01408 2.06782 7.95817 2.23333L7.43317 3.80833L5.94984 3.06667C5.79458 2.99148 5.61981 2.96634 5.44965 2.9947C5.27949 3.02306 5.12232 3.10353 4.99984 3.225L3.22484 5C3.10158 5.12314 3.02001 5.28181 2.99161 5.45371C2.96321 5.62561 2.9894 5.80209 3.06651 5.95833L3.80817 7.44167L2.23317 7.96667C2.069 8.02211 1.92619 8.12736 1.82463 8.26776C1.72307 8.40815 1.66779 8.57672 1.66651 8.75V11.25C1.66606 11.4247 1.72052 11.5951 1.82221 11.7372C1.92389 11.8793 2.06766 11.9858 2.23317 12.0417L3.80817 12.5667L3.06651 14.05C2.99132 14.2053 2.96618 14.38 2.99454 14.5502C3.0229 14.7203 3.10337 14.8775 3.22484 15L4.99984 16.775C5.12298 16.8983 5.28165 16.9798 5.45355 17.0082C5.62545 17.0366 5.80193 17.0104 5.95817 16.9333L7.44151 16.1917L7.96651 17.7667C8.02241 17.9322 8.12892 18.0759 8.27098 18.1776C8.41304 18.2793 8.58347 18.3338 8.75817 18.3333H11.2582C11.4329 18.3338 11.6033 18.2793 11.7454 18.1776C11.8874 18.0759 11.9939 17.9322 12.0498 17.7667L12.5748 16.1917L14.0582 16.9333C14.2124 17.0066 14.3855 17.0307 14.5539 17.0024C14.7224 16.9741 14.878 16.8947 14.9998 16.775L16.7748 15C16.8981 14.8769 16.9797 14.7182 17.0081 14.5463C17.0365 14.3744 17.0103 14.1979 16.9332 14.0417L16.1915 12.5583L17.7665 12.0333C17.9307 11.9779 18.0735 11.8726 18.175 11.7322C18.2766 11.5918 18.3319 11.4233 18.3332 11.25V8.75C18.3336 8.5753 18.2792 8.40487 18.1775 8.26281C18.0758 8.12075 17.932 8.01424 17.7665 7.95833ZM16.6665 10.65L15.6665 10.9833C15.4366 11.0579 15.2256 11.1816 15.0482 11.3459C14.8709 11.5102 14.7314 11.7111 14.6394 11.9346C14.5474 12.1582 14.5052 12.3991 14.5156 12.6406C14.5261 12.8822 14.5889 13.1185 14.6998 13.3333L15.1748 14.2833L14.2582 15.2L13.3332 14.7C13.1195 14.5935 12.8854 14.5342 12.6468 14.5261C12.4081 14.5179 12.1706 14.5612 11.9501 14.6528C11.7296 14.7445 11.5314 14.8824 11.3689 15.0574C11.2064 15.2323 11.0834 15.4401 11.0082 15.6667L10.6748 16.6667H9.34984L9.01651 15.6667C8.94192 15.4367 8.81819 15.2257 8.65392 15.0484C8.48965 14.871 8.28876 14.7315 8.06519 14.6395C7.84162 14.5476 7.60072 14.5054 7.35919 14.5158C7.11767 14.5262 6.88131 14.5891 6.66651 14.7L5.71651 15.175L4.79984 14.2583L5.29984 13.3333C5.41075 13.1185 5.47361 12.8822 5.48404 12.6406C5.49448 12.3991 5.45225 12.1582 5.36029 11.9346C5.26832 11.7111 5.12882 11.5102 4.95146 11.3459C4.7741 11.1816 4.56313 11.0579 4.33317 10.9833L3.33317 10.65V9.35L4.33317 9.01667C4.56313 8.94208 4.7741 8.81835 4.95146 8.65408C5.12882 8.48981 5.26832 8.28892 5.36029 8.06535C5.45225 7.84178 5.49448 7.60088 5.48404 7.35935C5.47361 7.11783 5.41075 6.88147 5.29984 6.66667L4.82484 5.74167L5.74151 4.825L6.66651 5.3C6.88131 5.41091 7.11767 5.47377 7.35919 5.4842C7.60072 5.49464 7.84162 5.45241 8.06519 5.36045C8.28876 5.26848 8.48965 5.12898 8.65392 4.95162C8.81819 4.77426 8.94192 4.56329 9.01651 4.33333L9.34984 3.33333H10.6498L10.9832 4.33333C11.0578 4.56329 11.1815 4.77426 11.3458 4.95162C11.51 5.12898 11.7109 5.26848 11.9345 5.36045C12.1581 5.45241 12.399 5.49464 12.6405 5.4842C12.882 5.47377 13.1184 5.41091 13.3332 5.3L14.2832 4.825L15.1998 5.74167L14.6998 6.66667C14.5934 6.88037 14.5341 7.11446 14.5259 7.35307C14.5178 7.59169 14.561 7.82927 14.6527 8.04973C14.7443 8.2702 14.8823 8.46839 15.0572 8.6309C15.2321 8.79341 15.4399 8.91644 15.6665 8.99167L16.6665 9.325V10.65ZM9.99984 6.66667C9.34057 6.66667 8.6961 6.86216 8.14794 7.22843C7.59978 7.59471 7.17253 8.1153 6.92024 8.72439C6.66795 9.33347 6.60194 10.0037 6.73055 10.6503C6.85917 11.2969 7.17664 11.8908 7.64282 12.357C8.10899 12.8232 8.70293 13.1407 9.34954 13.2693C9.99614 13.3979 10.6664 13.3319 11.2755 13.0796C11.8845 12.8273 12.4051 12.4001 12.7714 11.8519C13.1377 11.3037 13.3332 10.6593 13.3332 10C13.3332 9.11594 12.982 8.2681 12.3569 7.64298C11.7317 7.01786 10.8839 6.66667 9.99984 6.66667V6.66667ZM9.99984 11.6667C9.6702 11.6667 9.34797 11.5689 9.07389 11.3858C8.79981 11.2026 8.58619 10.9423 8.46004 10.6378C8.33389 10.3333 8.30089 9.99815 8.3652 9.67485C8.42951 9.35155 8.58824 9.05458 8.82133 8.82149C9.05442 8.5884 9.35139 8.42967 9.67469 8.36536C9.99799 8.30105 10.3331 8.33405 10.6376 8.4602C10.9422 8.58635 11.2025 8.79997 11.3856 9.07405C11.5688 9.34813 11.6665 9.67036 11.6665 10C11.6665 10.442 11.4909 10.8659 11.1783 11.1785C10.8658 11.4911 10.4419 11.6667 9.99984 11.6667Z"
          fill-opacity="0.65"/>
    <defs>
        <linearGradient id="orangeGradient">
            <stop offset="0%" stop-color="#F78E1E"/>
            <stop offset="236.03%" stop-color="#FFDC51"/>
        </linearGradient>
    </defs>
</svg>
