<svg width="3041" height="591" fill="none" xmlns="http://www.w3.org/2000/svg">
  <g clip-path="url(#clip0)">
    <path fill-rule="evenodd" clip-rule="evenodd" d="M3040 473H1976l-196-158L2142 1h898v472z" fill="#fff"/>
    <path fill-rule="evenodd" clip-rule="evenodd" d="M3005 438V36h-850l-320 278 153 124h1017z" fill="#1B1B1B"/>
    <path fill-rule="evenodd" clip-rule="evenodd" d="M1742 119l-100 85 91 74 186-159h-177zm-591 0l260 283 103-88L1122 1h177l300 240 92 73 198 159h-177l-107-85-100 85h-206l-81-88H985l77-89h74l-71-78-327 373H560l104-118H501l-88-212-89 212H147L-1 119h148l89 212 88-212h177l89 212 89-212h147L692 441l282-322h177z" fill="#fff"/>
    <path d="M2218 314h91v45h-137V121h46v193zm241-125h43v170h-43v-20a67 67 0 01-56 24c-22 0-42-8-58-26a90 90 0 01-24-63c0-25 8-46 24-64 16-17 36-26 58-26 24 0 43 9 56 25v-20zm-81 119c9 9 20 14 34 14a46 46 0 0047-48c0-14-5-26-14-35-9-8-20-13-33-13-14 0-25 5-34 13-9 9-13 21-13 35s4 25 13 34zm263-124c23 0 42 9 58 26 16 18 24 39 24 64s-8 46-24 63a77 77 0 01-58 26c-24 0-42-8-55-24v20h-44V121h44v88c13-16 31-25 55-25zm-42 124c9 9 20 14 34 14a46 46 0 0047-48c0-14-5-26-14-35-9-8-20-13-33-13-14 0-25 5-34 13-9 9-13 21-13 35s4 25 13 34zm192-71c0 5 3 8 9 11s13 6 22 8l25 8c9 3 16 9 22 16 6 8 9 18 9 29 0 17-6 31-19 40-13 10-29 14-49 14-35 0-58-13-71-40l38-21c5 14 16 22 33 22 16 0 24-5 24-15 0-4-3-8-9-11l-22-8-26-8c-9-3-16-9-22-16s-9-17-9-28c0-16 6-30 19-39 12-10 27-15 46-15 13 0 26 3 37 10 11 6 20 15 27 26l-37 21c-6-12-15-18-27-18-6 0-11 2-15 4-3 3-5 6-5 10z" fill="#fff"/>
    <path fill-rule="evenodd" clip-rule="evenodd" d="M1741 119l-99 86 91 73 186-159h-178z" fill="#F78E1E"/>
  </g>
  <defs>
    <clipPath id="clip0">
      <path fill="#fff" d="M0 0h3041v591H0z"/>
    </clipPath>
  </defs>
</svg>
