<svg width="173" height="40" viewBox="0 0 173 40" fill="none" xmlns="http://www.w3.org/2000/svg">
<path d="M33.0129 6.3C34.1329 6.3 35.0523 6.67333 35.7709 7.42C36.4989 8.15733 36.8629 9.09067 36.8629 10.22C36.8629 11.34 36.4989 12.2733 35.7709 13.02C35.0523 13.7667 34.1329 14.14 33.0129 14.14C32.2569 14.14 31.5756 13.9533 30.9689 13.58C30.3623 13.2067 29.9003 12.698 29.5829 12.054L29.5129 14H29.1349V3.766H29.5829V8.372C29.9003 7.728 30.3623 7.224 30.9689 6.86C31.5756 6.48667 32.2569 6.3 33.0129 6.3ZM32.9989 13.706C33.9789 13.706 34.7909 13.3793 35.4349 12.726C36.0789 12.0633 36.4009 11.228 36.4009 10.22C36.4009 9.212 36.0789 8.38133 35.4349 7.728C34.7909 7.06533 33.9789 6.734 32.9989 6.734C32.0189 6.734 31.2023 7.06533 30.5489 7.728C29.8956 8.39067 29.5689 9.22133 29.5689 10.22C29.5689 11.2093 29.8956 12.04 30.5489 12.712C31.2023 13.3747 32.0189 13.706 32.9989 13.706ZM44.3133 13.244C43.744 13.8413 42.9693 14.14 41.9893 14.14C41.0187 14.14 40.244 13.8413 39.6653 13.244C39.096 12.6467 38.8113 11.844 38.8113 10.836V6.44H39.2593V10.78C39.2593 11.6853 39.502 12.3993 39.9873 12.922C40.482 13.4447 41.1493 13.706 41.9893 13.706C42.8387 13.706 43.506 13.4447 43.9913 12.922C44.486 12.3993 44.7333 11.6853 44.7333 10.78V6.44H45.1813V10.836C45.1813 11.844 44.892 12.6467 44.3133 13.244ZM47.6854 4.76V3.976H48.3434V4.76H47.6854ZM47.7834 14V6.44H48.2314V14H47.7834ZM50.9826 14V3.766H51.4306V14H50.9826ZM57.0098 13.58H57.9618V14H56.9678C56.2678 14 55.7171 13.7993 55.3158 13.398C54.9145 12.9873 54.7138 12.4227 54.7138 11.704V6.846H52.9638V6.454H54.7138V4.214H55.1618V6.454H57.9058V6.846H55.1618V11.69C55.1618 12.2873 55.3205 12.754 55.6378 13.09C55.9645 13.4167 56.4218 13.58 57.0098 13.58ZM72.8929 6.44H73.3549L70.6809 14H70.3309L67.7549 7.56L65.1929 14H64.8429L62.2529 6.44H62.7149L65.0389 13.216L67.6569 6.692H67.8529L70.4849 13.23L72.8929 6.44ZM74.9881 4.76V3.976H75.6461V4.76H74.9881ZM75.0861 14V6.44H75.5341V14H75.0861ZM81.1133 13.58H82.0653V14H81.0713C80.3713 14 79.8207 13.7993 79.4193 13.398C79.018 12.9873 78.8173 12.4227 78.8173 11.704V6.846H77.0673V6.454H78.8173V4.214H79.2653V6.454H82.0093V6.846H79.2653V11.69C79.2653 12.2873 79.424 12.754 79.7413 13.09C80.068 13.4167 80.5253 13.58 81.1133 13.58ZM87.0467 6.3C87.952 6.3 88.6707 6.58933 89.2027 7.168C89.7347 7.74667 90.0007 8.53067 90.0007 9.52V14H89.5527V9.604C89.5527 8.69867 89.324 7.994 88.8667 7.49C88.4094 6.97667 87.7747 6.72 86.9627 6.72C86.188 6.72 85.516 7.00467 84.9467 7.574C84.3774 8.14333 84.0927 8.82 84.0927 9.604V14H83.6447V3.766H84.0927V8.148C84.3634 7.59733 84.7647 7.154 85.2967 6.818C85.8287 6.47267 86.412 6.3 87.0467 6.3Z" fill="white"/>
<path d="M119.237 4.55846L114.944 11.1259L113.792 1.05115" stroke="white" stroke-width="0.379268" stroke-linejoin="round"/>
<path d="M119.237 9.96802L114.944 11.1258L114.406 15.4345" stroke="white" stroke-width="0.379268" stroke-miterlimit="10"/>
<path d="M114.944 11.1259L109.494 19.0401L114.944 11.1259Z" stroke="white" stroke-width="0.379268" stroke-miterlimit="10"/>
<path d="M104.115 11.0865L109.494 19.0401L104.115 11.0865Z" stroke="white" stroke-width="0.379268" stroke-miterlimit="10"/>
<path d="M114.944 11.0865H104.115L109.494 5.69983" stroke="white" stroke-width="0.379268" stroke-linejoin="round"/>
<path d="M114.944 11.0865L109.494 5.69983" stroke="white" stroke-width="0.379268" stroke-miterlimit="10"/>
<path d="M99.7629 10.0114L104.115 11.0866L104.576 15.4216L104.115 11.0866L99.7629 4.45605" stroke="white" stroke-width="0.379268" stroke-miterlimit="10"/>
<path d="M104.115 11.0865L105.139 1" stroke="white" stroke-width="0.379268" stroke-miterlimit="10"/>
<path d="M109.494 19.0401L104.576 15.4216L99.7629 10.0114V4.45604L105.139 1L109.494 5.69989L113.792 1.05113L119.237 4.55844V9.96801L114.406 15.4345L109.494 19.0401Z" stroke="white" stroke-width="0.379268" stroke-linejoin="round"/>
<path d="M132.487 6.3C133.607 6.3 134.526 6.67333 135.245 7.42C135.973 8.15733 136.337 9.09067 136.337 10.22C136.337 11.34 135.973 12.2733 135.245 13.02C134.526 13.7667 133.607 14.14 132.487 14.14C131.731 14.14 131.05 13.9533 130.443 13.58C129.836 13.2067 129.374 12.698 129.057 12.054L128.987 14H128.609V3.766H129.057V8.372C129.374 7.728 129.836 7.224 130.443 6.86C131.05 6.48667 131.731 6.3 132.487 6.3ZM132.473 13.706C133.453 13.706 134.265 13.3793 134.909 12.726C135.553 12.0633 135.875 11.228 135.875 10.22C135.875 9.212 135.553 8.38133 134.909 7.728C134.265 7.06533 133.453 6.734 132.473 6.734C131.493 6.734 130.676 7.06533 130.023 7.728C129.37 8.39067 129.043 9.22133 129.043 10.22C129.043 11.2093 129.37 12.04 130.023 12.712C130.676 13.3747 131.493 13.706 132.473 13.706ZM144.072 6.44H144.548L140.698 14.672C140.343 15.4373 139.974 15.96 139.592 16.24C139.218 16.5293 138.724 16.674 138.108 16.674H137.52V16.254H138.08C138.612 16.254 139.032 16.1373 139.34 15.904C139.657 15.68 139.974 15.2273 140.292 14.546L140.754 13.58L137.212 6.44H137.716L140.992 13.076L144.072 6.44Z" fill="white"/>
<path d="M4.704 24.24H1.246V34.04H4.704C6.132 34.04 7.322 33.578 8.26 32.654C9.198 31.73 9.674 30.568 9.674 29.14C9.674 27.726 9.198 26.55 8.26 25.626C7.322 24.702 6.132 24.24 4.704 24.24ZM4.662 32.542H2.856V25.738H4.662C5.138 25.738 5.6 25.822 6.02 25.99C6.44 26.158 6.79 26.396 7.084 26.69C7.378 26.998 7.602 27.348 7.77 27.768C7.938 28.188 8.022 28.65 8.022 29.14C8.022 30.134 7.7 30.946 7.07 31.59C6.44 32.234 5.642 32.542 4.662 32.542ZM14.1446 32.514V29.784H17.8686V28.3H14.1446V25.752H18.2326V24.24H12.5346V34.04H18.3866V32.514H14.1446ZM27.7059 24.24H20.3419V25.738H23.2259V34.04H24.8219V25.738H27.7059V24.24ZM35.8029 34.04H37.6089L35.3409 30.19C35.9429 29.966 36.4329 29.602 36.7969 29.098C37.1609 28.594 37.3429 28.006 37.3429 27.334C37.3429 26.746 37.1889 26.214 36.9089 25.738C36.6289 25.262 36.2369 24.898 35.7329 24.632C35.2289 24.38 34.6689 24.24 34.0529 24.24H30.2309V34.04H31.8409V30.414H33.7029L35.8029 34.04ZM31.8409 25.752H33.9549C34.4729 25.752 34.8929 25.906 35.2149 26.2C35.5369 26.494 35.7049 26.872 35.7049 27.32C35.7049 27.558 35.6629 27.768 35.5789 27.964C35.4949 28.16 35.3689 28.328 35.2289 28.468C35.0749 28.608 34.8929 28.72 34.6689 28.79C34.4449 28.874 34.2069 28.902 33.9549 28.902H31.8409V25.752ZM44.8387 34.222C45.8187 34.222 46.7007 34.012 47.4847 33.564C48.2687 33.13 48.8847 32.528 49.3327 31.744C49.7807 30.96 50.0047 30.092 50.0047 29.14C50.0047 27.684 49.5147 26.48 48.5347 25.514C47.5547 24.548 46.3227 24.058 44.8387 24.058C43.3547 24.058 42.1227 24.548 41.1427 25.514C40.1627 26.48 39.6727 27.684 39.6727 29.14C39.6727 30.596 40.1627 31.814 41.1427 32.78C42.1227 33.746 43.3547 34.222 44.8387 34.222ZM44.8387 32.682C43.8307 32.682 42.9907 32.346 42.3187 31.674C41.6467 31.002 41.3107 30.148 41.3107 29.14C41.3107 28.132 41.6467 27.292 42.3187 26.62C42.9907 25.948 43.8307 25.598 44.8387 25.598C45.8467 25.598 46.6867 25.948 47.3587 26.62C48.0307 27.292 48.3667 28.132 48.3667 29.14C48.3667 30.148 48.0307 31.002 47.3587 31.674C46.6867 32.346 45.8467 32.682 44.8387 32.682ZM52.8491 34.04H54.4591V24.24H52.8491V34.04ZM64.3427 24.24H56.9787V25.738H59.8627V34.04H61.4587V25.738H64.3427V24.24ZM72.5339 32.542V24.24H70.9239V34.04H76.6079V32.542H72.5339ZM80.7326 32.514V29.784H84.4566V28.3H80.7326V25.752H84.8206V24.24H79.1226V34.04H84.9746V32.514H80.7326ZM91.3399 24.24H87.8819V34.04H91.3399C92.7679 34.04 93.9579 33.578 94.8959 32.654C95.8339 31.73 96.3099 30.568 96.3099 29.14C96.3099 27.726 95.8339 26.55 94.8959 25.626C93.9579 24.702 92.7679 24.24 91.3399 24.24ZM91.2979 32.542H89.4919V25.738H91.2979C91.7739 25.738 92.2359 25.822 92.6559 25.99C93.0759 26.158 93.4259 26.396 93.7199 26.69C94.0139 26.998 94.2379 27.348 94.4059 27.768C94.5739 28.188 94.6579 28.65 94.6579 29.14C94.6579 30.134 94.3359 30.946 93.7059 31.59C93.0759 32.234 92.2779 32.542 91.2979 32.542ZM103.273 29.07V30.456H106.759C106.577 31.128 106.199 31.66 105.611 32.066C105.023 32.472 104.337 32.668 103.567 32.668C102.559 32.668 101.733 32.346 101.117 31.688C100.487 31.044 100.179 30.19 100.179 29.14C100.179 28.468 100.319 27.852 100.613 27.32C100.893 26.788 101.299 26.368 101.817 26.074C102.321 25.78 102.909 25.626 103.567 25.626C104.295 25.626 104.953 25.822 105.527 26.2C106.101 26.578 106.493 27.082 106.703 27.698H108.369C108.145 26.634 107.571 25.766 106.675 25.094C105.765 24.422 104.715 24.072 103.525 24.072C102.097 24.072 100.907 24.562 99.9545 25.514C99.0025 26.48 98.5405 27.684 98.5405 29.14C98.5405 30.61 99.0165 31.828 99.9685 32.78C100.921 33.746 102.111 34.222 103.567 34.222C104.995 34.222 106.171 33.746 107.095 32.78C108.019 31.814 108.481 30.582 108.509 29.07H103.273ZM112.93 32.514V29.784H116.654V28.3H112.93V25.752H117.018V24.24H111.32V34.04H117.172V32.514H112.93ZM125.652 34.04H127.458L125.19 30.19C125.792 29.966 126.282 29.602 126.646 29.098C127.01 28.594 127.192 28.006 127.192 27.334C127.192 26.746 127.038 26.214 126.758 25.738C126.478 25.262 126.086 24.898 125.582 24.632C125.078 24.38 124.518 24.24 123.902 24.24H120.08V34.04H121.69V30.414H123.552L125.652 34.04ZM121.69 25.752H123.804C124.322 25.752 124.742 25.906 125.064 26.2C125.386 26.494 125.554 26.872 125.554 27.32C125.554 27.558 125.512 27.768 125.428 27.964C125.344 28.16 125.218 28.328 125.078 28.468C124.924 28.608 124.742 28.72 124.518 28.79C124.294 28.874 124.056 28.902 123.804 28.902H121.69V25.752ZM140.647 24.24H133.283V25.738H136.167V34.04H137.763V25.738H140.647V24.24ZM144.782 32.514V29.784H148.506V28.3H144.782V25.752H148.87V24.24H143.172V34.04H149.024V32.514H144.782ZM156.177 34.208C157.353 34.208 158.375 33.872 159.243 33.186C160.097 32.5 160.657 31.576 160.909 30.428H159.271C159.047 31.128 158.669 31.674 158.123 32.066C157.563 32.458 156.919 32.654 156.177 32.654C155.197 32.654 154.385 32.332 153.741 31.674C153.097 31.016 152.775 30.176 152.775 29.154C152.775 28.132 153.097 27.292 153.741 26.62C154.385 25.962 155.197 25.626 156.177 25.626C156.905 25.626 157.535 25.822 158.081 26.186C158.613 26.55 159.005 27.068 159.243 27.712H160.867C160.699 26.984 160.391 26.354 159.943 25.794C159.495 25.248 158.949 24.828 158.305 24.52C157.647 24.226 156.933 24.072 156.177 24.072C154.721 24.072 153.517 24.562 152.565 25.514C151.613 26.466 151.137 27.684 151.137 29.14C151.137 30.61 151.613 31.828 152.565 32.78C153.517 33.732 154.721 34.208 156.177 34.208ZM169.679 24.24V28.244H165.199V24.24H163.589V34.04H165.199V29.77H169.679V34.04H171.289V24.24H169.679Z" fill="white"/>
</svg>
