<svg width="24" height="24" viewBox="0 0 24 24" fill="none" xmlns="http://www.w3.org/2000/svg">
    <path fill-rule="evenodd" clip-rule="evenodd" d="M1 9.5C1 5.91017 3.91015 3 7.5 3C8.56209 3 9.56748 3.25551 10.4552 3.70931C10.845 3.90857 11.0598 4.3382 10.9855 4.7696L10.606 6.9705L14.4856 9.12584C14.7718 9.28481 14.962 9.57374 14.9949 9.89941C15.0279 10.2251 14.8993 10.5462 14.6508 10.7593L11.792 13.2097L12.8575 14.9855C13.1416 15.4591 12.9881 16.0733 12.5145 16.3575C12.0409 16.6416 11.4267 16.4881 11.1425 16.0145L9.64251 13.5145C9.3916 13.0963 9.47893 12.5581 9.84921 12.2407L12.2579 10.1761L9.01436 8.37416C8.64279 8.16773 8.44232 7.74898 8.51454 7.33011L8.87917 5.215C8.44525 5.07547 7.98205 5 7.5 5C5.01472 5 3 7.01473 3 9.5C3 11.8658 4.41416 14.2499 6.39461 16.2304C8.25564 18.0914 10.4571 19.4344 12 19.9529C13.5429 19.4344 15.7444 18.0914 17.6054 16.2304C19.5858 14.2499 21 11.8658 21 9.5C21 7.01473 18.9853 5 16.5 5C15.7617 5 15.0676 5.17705 14.4552 5.49011C13.9634 5.7415 13.361 5.54664 13.1096 5.05489C12.8582 4.56313 13.0531 3.9607 13.5448 3.70931C14.4325 3.25551 15.4379 3 16.5 3C20.0898 3 23 5.91017 23 9.5C23 12.6342 21.1642 15.5001 19.0196 17.6446C16.8692 19.7951 14.227 21.4037 12.2747 21.9615C12.0952 22.0128 11.9048 22.0128 11.7253 21.9615C9.77305 21.4037 7.13085 19.7951 4.98039 17.6446C2.83584 15.5001 1 12.6342 1 9.5Z" fill="white" fill-opacity="0.85"/>
</svg>
