<svg id="Layer_1" data-name="Layer 1" xmlns="http://www.w3.org/2000/svg" viewBox="0 0 2164.5 1786.5">
  <defs>
    <style>
      .cls-4{fill:#fff;opacity:.1}
    </style>
  </defs>
  <path d="M1761.51,1381a188.85,188.85,0,0,1-189,189H563.78A189,189,0,0,1,408,1274l13.35-17.19L691.4,909,850.46,704.12V248h435.37V704L1445,909l270.68,348.59.08.1,11.91,15.33h0A188.09,188.09,0,0,1,1761.51,1381Z" fill-rule="evenodd" fill="none" stroke="#dedede" stroke-miterlimit="10" stroke-width="30"/>
  <path d="M1461.86,1214.71l-51.17,52.2,47,44.74,95-96.94Zm-302.86,0,133.26,173,52.63-53.69-201-191.38h90.85l154,146.65,47,44.73,101.82,96.93h-90.85l-54.83-52.19-51.18,52.19h-106l-41.64-54.06H1073.82l39.75-54.05h37.86l-36.8-47.77L947,1503H856.14l53-72.08H825.85l-45.42-129.73L735,1430.94H644.14l-75.72-216.23h75.72l45.43,129.74L735,1214.71h90.85l45.43,129.74,45.43-129.74h75.71l-68.83,196.58,144.55-196.58Z" fill="#fff" fill-rule="evenodd"/>
  <path fill="#f78e1e" fill-rule="evenodd" d="M1410.69 1266.9L1457.68 1311.65 1552.71 1214.71 1461.86 1214.71 1410.69 1266.9z"/>
  <circle class="cls-4" cx="1166.21" cy="487.24" r="36.56"/>
  <circle class="cls-4" cx="1175.22" cy="596.97" r="18.28"/>
  <circle class="cls-4" cx="1053" cy="400.79" r="53.36"/>
  <path d="M1714.57,1273h0l-11.68-15.33-.08-.1L1437.55,909c-80.42,0-117.79,43.87-241.26,0s-165.38,20.25-324.18,0-115.37,0-173.05,0L434.36,1256.8,421.28,1274a189.77,189.77,0,0,0-29,70.11,193.84,193.84,0,0,0-3.53,36.87c0,80.36,49.16,149,118.45,176.34H1629.31c69.3-27.33,118.46-96,118.46-176.34A190.71,190.71,0,0,0,1714.57,1273ZM763.05,995.65A18.29,18.29,0,1,1,781,977.37,18.1,18.1,0,0,1,763.05,995.65Zm65.55,64.86c-19.79,0-35.83-16.37-35.83-36.56s16-36.57,35.83-36.57,35.83,16.37,35.83,36.57S848.39,1060.51,828.6,1060.51Z" opacity=".1" fill="#fff" fill-rule="evenodd"/>
  <path fill="none" stroke="#dedede" stroke-miterlimit="10" stroke-width="30" d="M787.02 243.28L1349.52 243.28"/>
</svg>
