<svg id="_x33_0" enable-background="new 0 0 64 64" height="512" viewBox="0 0 64 64" width="512" xmlns="http://www.w3.org/2000/svg"><g><path d="m44.414 29c.645 0 1.251-.251 1.707-.707l3.293-3.293h10.586c1.654 0 3-1.346 3-3v-14c0-1.654-1.346-3-3-3h-21v-2c0-1.103-.897-2-2-2h-27.586c-.534 0-1.036.208-1.414.586l-6.414 6.414c-.378.378-.586.88-.586 1.414v51.586c0 1.103.897 2 2 2h34c1.103 0 2-.897 2-2v-8h9.586l3.293 3.293c.456.456 1.062.707 1.707.707 1.331 0 2.414-1.083 2.414-2.414v-1.586h4c1.654 0 3-1.346 3-3v-14c0-1.654-1.345-3-2.998-3h-21.002v-8h3v1.586c0 1.331 1.083 2.414 2.414 2.414zm-36.414-24.586v3.586h-3.586zm-5 56.586v-51h7v-7h27v2.184c-1.161.414-2 1.514-2 2.816v14c0 1.302.839 2.402 2 2.816v8.369c-1.161.414-2 1.514-2 2.816v14c0 1.302.839 2.402 2 2.816v8.183zm58-25v14c0 .551-.449 1-1 1h-6v3.586c0 .338-.469.531-.707.293l-3.879-3.879h-11.414c-.551 0-1-.449-1-1v-14c0-.551.449-1 1-1h22.002c.551 0 .998.449.998 1zm-23-13c-.551 0-1-.449-1-1v-14c0-.551.449-1 1-1h22c.551 0 1 .449 1 1v14c0 .551-.449 1-1 1h-11.414l-3.879 3.879c-.239.238-.707.045-.707-.293v-3.586z"/><path d="m57.673 10.74-1.346-1.48-10.294 9.359-2.326-2.326-1.414 1.414 3.674 3.674z"/><path d="m27 35h-22v8h22zm-2 6h-18v-4h18z"/><path d="m5 45h22v2h-22z"/><path d="m5 49h26v2h-26z"/><path d="m5 53h26v2h-26z"/><path d="m5 57h6v2h-6z"/><path d="m13 57h6v2h-6z"/><path d="m21 57h6v2h-6z"/><path d="m20 7c-7.168 0-13 5.832-13 13s5.832 13 13 13 13-5.832 13-13-5.832-13-13-13zm0 24c-3.129 0-5.949-1.319-7.954-3.423.743-1.26 1.759-2.32 2.967-3.095l4.987 4.923 4.987-4.923c1.208.775 2.224 1.835 2.967 3.095-2.005 2.104-4.825 3.423-7.954 3.423zm-4-14c0-2.206 1.794-4 4-4s4 1.794 4 4-1.794 4-4 4-4-1.794-4-4zm.923 6.557c.978-.349 2.013-.557 3.077-.557s2.099.208 3.077.557l-3.077 3.038zm12.352 2.332c-1.348-1.956-3.292-3.432-5.506-4.227 1.359-1.101 2.231-2.781 2.231-4.662 0-3.309-2.691-6-6-6s-6 2.691-6 6c0 1.881.872 3.561 2.231 4.662-2.214.795-4.158 2.271-5.506 4.227-1.086-1.705-1.725-3.722-1.725-5.889 0-6.065 4.935-11 11-11s11 4.935 11 11c0 2.167-.639 4.184-1.725 5.889z"/><path d="m44.707 48.707 4.293-4.293 4.293 4.293 1.414-1.414-4.293-4.293 4.293-4.293-1.414-1.414-4.293 4.293-4.293-4.293-1.414 1.414 4.293 4.293-4.293 4.293z"/></g></svg>