<svg width="2109" height="682" viewBox="0 0 2109 682" fill="none" xmlns="http://www.w3.org/2000/svg">
<g style="filter:overlay;" opacity="0.15">
<path fill-rule="evenodd" clip-rule="evenodd" d="M1913.96 136.272L1804.33 234.945L1905 319.532L2108.59 136.272H1913.96ZM1265.16 136.272L1550.62 463.315L1663.38 361.814L1232.72 0H1427.35L1757.34 277.239L1858.03 361.814L2076.15 545.075H1881.51L1764.06 446.402L1654.43 545.075H1622H1459.79H1427.35L1338.15 442.871H1082.68L1167.84 340.679H1248.93L1170.1 250.358L810.999 681.347H616.354L729.892 545.075H713.677H583.913H551.473L454.161 299.793L356.838 545.075H324.398H194.634H162.193L0 136.272H162.193L259.516 381.554L356.838 136.272H389.279H519.043H551.473L648.795 381.554L746.118 136.272H908.311L760.861 507.915L1070.52 136.272H1265.16Z" fill="url(#paint0_linear)"/>
</g>
<defs>
<linearGradient id="paint0_linear" x1="1972.11" y1="-0.00013146" x2="19.6803" y2="681.347" gradientUnits="userSpaceOnUse">
<stop stop-color="white"/>
<stop offset="1" stop-color="white" stop-opacity="0"/>
</linearGradient>
</defs>
</svg>
