<svg width="181" height="40" viewBox="0 0 181 40" fill="none" xmlns="http://www.w3.org/2000/svg">
<path d="M39.048 7.87715C40.644 7.87715 41.708 9.16364 41.708 10.995V16.2166H40.518V11.4036C40.518 9.9204 39.888 9.04256 38.81 9.04256C37.704 9.04256 36.794 10.1928 36.794 11.6912V16.2166H35.618V11.4036C35.618 9.9204 34.988 9.04256 33.896 9.04256C32.79 9.04256 31.88 10.1928 31.88 11.6912V16.2166H30.69V8.04364H31.544L31.74 9.17878C32.328 8.36148 33.21 7.87715 34.162 7.87715C35.24 7.87715 36.066 8.46742 36.486 9.42094C37.046 8.46742 38.012 7.87715 39.048 7.87715ZM50.4467 8.04364H51.3847V16.2166H50.4047L50.2787 14.9907C49.5787 15.8685 48.5427 16.3982 47.3107 16.3982C45.0707 16.3982 43.3907 14.5669 43.3907 12.1453C43.3907 9.69337 45.0707 7.87715 47.3107 7.87715C48.5427 7.87715 49.5927 8.40688 50.2927 9.29986L50.4467 8.04364ZM47.3947 15.1572C49.0047 15.1572 50.1667 13.8707 50.1667 12.1301C50.1667 10.4047 49.0047 9.11824 47.3947 9.11824C45.7987 9.11824 44.6087 10.4199 44.6087 12.1301C44.6087 13.8555 45.7987 15.1572 47.3947 15.1572ZM59.8858 5.1377H61.0758V16.2317H60.1518L59.9978 15.0663C59.2978 15.8988 58.2758 16.3982 57.0858 16.3982C54.8178 16.3982 53.1798 14.5669 53.1798 12.1453C53.1798 9.69337 54.8178 7.87715 57.0858 7.87715C58.2058 7.87715 59.1858 8.33121 59.8858 9.08797V5.1377ZM57.1698 15.1572C58.7798 15.1572 59.9558 13.8555 59.9558 12.1453C59.9558 10.4199 58.7798 9.11824 57.1698 9.11824C55.5738 9.11824 54.3978 10.4047 54.3978 12.1453C54.3978 13.8707 55.5738 15.1572 57.1698 15.1572ZM70.5452 12.1755C70.5452 12.3269 70.5312 12.4782 70.5172 12.6296H64.0772C64.2592 14.1431 65.3092 15.142 66.7372 15.142C67.7872 15.142 68.6272 14.6123 69.0892 13.7345H70.3492C69.7052 15.4145 68.3752 16.3982 66.7372 16.3982C64.5392 16.3982 62.8872 14.5669 62.8872 12.1301C62.8872 9.70851 64.5392 7.87715 66.7372 7.87715C69.0332 7.87715 70.5452 9.78418 70.5452 12.1755ZM66.7372 9.08797C65.3652 9.08797 64.3432 10.0263 64.1052 11.449H69.3552C69.1032 9.99607 68.0812 9.08797 66.7372 9.08797ZM84.9782 8.04364H86.1822L83.6062 16.2166H82.6402L80.5122 10.662L78.3702 16.2166H77.4042L74.8562 8.04364H76.0882L77.9782 14.0674L80.2882 8.17986H80.7222L83.0602 14.128L84.9782 8.04364ZM87.605 6.63607V5.16797H88.893V6.63607H87.605ZM87.647 16.2166V8.04364H88.837V16.2166H87.647ZM94.3651 15.0361H95.1911V16.2166H94.2111C92.5871 16.2166 91.5791 15.142 91.5791 13.3712V9.20905H90.2491V8.98202L92.5871 6.31824H92.7691V8.04364H95.1491V9.20905H92.7691V13.3258C92.7691 14.4307 93.3291 15.0361 94.3651 15.0361ZM100.56 7.87715C102.366 7.87715 103.486 9.20905 103.486 11.328V16.2166H102.296V11.6307C102.296 9.98094 101.568 9.04256 100.266 9.04256C98.9638 9.04256 97.9698 10.2382 97.9698 11.7669V16.2166H96.7798V5.1377H97.9698V9.16364C98.5578 8.36148 99.4678 7.87715 100.56 7.87715Z" fill="white"/>
<path d="M128.136 5.57383L124.328 11.8709L123.307 2.21094" stroke="white" stroke-width="0.8" stroke-linejoin="round"/>
<path d="M128.136 10.7607L124.328 11.8708L123.852 16.0021" stroke="white" stroke-width="0.8" stroke-miterlimit="10"/>
<path d="M124.328 11.8711L119.495 19.4595" stroke="white" stroke-width="0.8" stroke-miterlimit="10"/>
<path d="M114.723 11.833L119.494 19.4591" stroke="white" stroke-width="0.8" stroke-miterlimit="10"/>
<path d="M124.328 11.8338H114.724L119.495 6.66895" stroke="white" stroke-width="0.8" stroke-linejoin="round"/>
<path d="M124.328 11.8338L119.495 6.66895" stroke="white" stroke-width="0.8" stroke-miterlimit="10"/>
<path d="M110.864 10.8022L114.724 11.833M114.724 11.833L115.133 15.9896M114.724 11.833L110.864 5.47559" stroke="white" stroke-width="0.8" stroke-miterlimit="10"/>
<path d="M114.724 11.8334L115.632 2.16211" stroke="white" stroke-width="0.8" stroke-miterlimit="10"/>
<path d="M119.495 19.4594L115.133 15.9899L110.864 10.8025V5.47584L115.632 2.16211L119.495 6.66848L123.307 2.21113L128.136 5.57403V10.7609L123.852 16.0022L119.495 19.4594Z" stroke="white" stroke-width="0.8" stroke-linejoin="round"/>
<path d="M138.68 7.87715C140.962 7.87715 142.586 9.69337 142.586 12.1301C142.586 14.5669 140.962 16.3982 138.68 16.3982C137.504 16.3982 136.482 15.8988 135.782 15.0663L135.614 16.2166H134.69V5.1377H135.88V9.08797C136.58 8.33121 137.56 7.87715 138.68 7.87715ZM138.596 15.1572C140.192 15.1572 141.368 13.8707 141.368 12.1301C141.368 10.4047 140.192 9.11824 138.596 9.11824C136.986 9.11824 135.81 10.4199 135.81 12.1301C135.81 13.8404 136.986 15.1572 138.596 15.1572ZM149.681 8.04364H150.955L147.343 16.5647C146.531 18.502 145.817 19.1377 144.389 19.1377H143.675V17.9723H144.277C145.299 17.9723 145.649 17.6393 146.265 16.2772L146.531 15.6718L143.171 8.04364H144.459L147.147 14.2339L149.681 8.04364Z" fill="white"/>
<path d="M4.68997 28.3247C7.57397 28.3247 9.65997 30.5496 9.65997 33.622C9.65997 36.6944 7.57397 38.9193 4.68997 38.9193H1.24597V28.3247H4.68997ZM4.64797 37.2998C6.63597 37.2998 8.02197 35.756 8.02197 33.622C8.02197 31.4879 6.63597 29.9593 4.64797 29.9593H2.84197V37.2998H4.64797ZM14.5506 37.2847H18.7926V38.9193H12.9546V28.3247H18.6386V29.9593H14.5506V32.729H18.2746V34.3182H14.5506V37.2847ZM28.5319 28.3247V29.9593H25.6619V38.9193H24.0519V29.9593H21.1819V28.3247H28.5319ZM37.0629 38.9193L34.9489 34.9993H33.0869V38.9193H31.4909V28.3247H35.2989C37.1889 28.3247 38.5889 29.7323 38.5889 31.6847C38.5889 33.1225 37.7909 34.2728 36.6009 34.7571L38.8689 38.9193H37.0629ZM33.0869 29.9593V33.3798H35.2009C36.2649 33.3798 36.9509 32.6685 36.9509 31.6696C36.9509 30.6858 36.2649 29.9593 35.2009 29.9593H33.0869ZM46.5187 39.1312C43.5367 39.1312 41.3527 36.7701 41.3527 33.622C41.3527 30.489 43.5367 28.1279 46.5187 28.1279C49.4867 28.1279 51.6847 30.489 51.6847 33.622C51.6847 36.7701 49.4867 39.1312 46.5187 39.1312ZM46.5187 37.4512C48.5347 37.4512 50.0467 35.8166 50.0467 33.622C50.0467 31.4425 48.5347 29.8079 46.5187 29.8079C44.5027 29.8079 42.9767 31.4577 42.9767 33.622C42.9767 35.8014 44.5027 37.4512 46.5187 37.4512ZM54.9491 38.9193V28.3247H56.5451V38.9193H54.9491ZM66.8487 28.3247V29.9593H63.9787V38.9193H62.3687V29.9593H59.4987V28.3247H66.8487ZM75.8799 37.2998H79.9539V38.9193H74.2839V28.3247H75.8799V37.2998ZM84.4986 37.2847H88.7406V38.9193H82.9026V28.3247H88.5866V29.9593H84.4986V32.729H88.2226V34.3182H84.4986V37.2847ZM95.5259 28.3247C98.4099 28.3247 100.496 30.5496 100.496 33.622C100.496 36.6944 98.4099 38.9193 95.5259 38.9193H92.0819V28.3247H95.5259ZM95.4839 37.2998C97.4719 37.2998 98.8579 35.756 98.8579 33.622C98.8579 31.4879 97.4719 29.9593 95.4839 29.9593H93.6779V37.2998H95.4839ZM107.879 33.5463H113.129C113.087 36.8004 111.057 39.1312 108.173 39.1312C105.289 39.1312 103.161 36.8004 103.161 33.6371C103.161 30.4739 105.275 28.1431 108.145 28.1431C110.539 28.1431 112.541 29.7625 112.975 32.0782H111.323C110.903 30.716 109.657 29.8231 108.173 29.8231C106.199 29.8231 104.799 31.3971 104.799 33.6371C104.799 35.8771 106.157 37.4512 108.173 37.4512C109.741 37.4512 111.015 36.4825 111.379 35.0447H107.879V33.5463ZM117.956 37.2847H122.198V38.9193H116.36V28.3247H122.044V29.9593H117.956V32.729H121.68V34.3182H117.956V37.2847ZM131.112 38.9193L128.998 34.9993H127.136V38.9193H125.54V28.3247H129.348C131.238 28.3247 132.638 29.7323 132.638 31.6847C132.638 33.1225 131.84 34.2728 130.65 34.7571L132.918 38.9193H131.112ZM127.136 29.9593V33.3798H129.25C130.314 33.3798 131 32.6685 131 31.6696C131 30.6858 130.314 29.9593 129.25 29.9593H127.136ZM146.933 28.3247V29.9593H144.063V38.9193H142.453V29.9593H139.583V28.3247H146.933ZM151.488 37.2847H155.73V38.9193H149.892V28.3247H155.576V29.9593H151.488V32.729H155.212V34.3182H151.488V37.2847ZM163.317 39.116C160.419 39.116 158.277 36.8004 158.277 33.6371C158.277 30.4587 160.419 28.1431 163.317 28.1431C165.627 28.1431 167.489 29.702 168.007 32.0933H166.383C165.907 30.6858 164.759 29.8231 163.317 29.8231C161.357 29.8231 159.915 31.4274 159.915 33.6371C159.915 35.8468 161.357 37.436 163.317 37.436C164.815 37.436 165.963 36.5128 166.411 35.0144H168.049C167.531 37.5117 165.669 39.116 163.317 39.116ZM177.239 28.3247H178.849V38.9193H177.239V34.3031H172.745V38.9193H171.149V28.3247H172.745V32.6685H177.239V28.3247Z" fill="white"/>
</svg>
