<svg width="104" height="32" viewBox="0 0 104 32" fill="none" xmlns="http://www.w3.org/2000/svg">
<path fill-rule="evenodd" clip-rule="evenodd" d="M94.3991 6.40011L88.9921 11.0344L93.9575 15.0071L103.999 6.40011H94.3991ZM62.3995 6.40011L76.479 21.7599L82.0404 16.9929L60.7995 0H70.3991L86.6747 13.0207L91.6406 16.9929L102.399 25.5999H92.799L87.0058 20.9656L81.5988 25.5999H79.9993H71.9992H70.3991L65.9995 20.7998H53.3992L57.5994 16.0003H61.5993L57.7111 11.7583L39.9997 32H30.3995L35.9993 25.5999H35.1996H28.7995H27.1994L22.3999 14.08L17.5998 25.5999H15.9998H9.59964H7.99961L0 6.40011H7.99961L12.7997 17.92L17.5998 6.40011H19.1998H25.5999H27.1994L31.9995 17.92L36.7996 6.40011H44.7992L37.5267 23.8547L52.7994 6.40011H62.3995Z" fill="white"/>
<path fill-rule="evenodd" clip-rule="evenodd" d="M94.3889 6.4082L88.9819 11.0425L93.9473 15.0152L103.989 6.4082H94.3889Z" fill="#F78E1E"/>
</svg>
