<?xml version="1.0" encoding="UTF-8"?>
<!DOCTYPE svg PUBLIC "-//W3C//DTD SVG 1.1//EN" "http://www.w3.org/Graphics/SVG/1.1/DTD/svg11.dtd">
<!-- Creator: CorelDRAW 2019 (64 Bit) -->
<svg xmlns="http://www.w3.org/2000/svg" xml:space="preserve" width="3041px" height="591px" version="1.1" style="shape-rendering:geometricPrecision; text-rendering:geometricPrecision; image-rendering:optimizeQuality; fill-rule:evenodd; clip-rule:evenodd"
viewBox="0 0 3041 590.58"
 xmlns:xlink="http://www.w3.org/1999/xlink">
 <defs>
  <style type="text/css">
   <![CDATA[
    .fil0 {fill:none}
    .fil3 {fill:black}
    .fil1 {fill:black}
    .fil2 {fill:white}
    .fil4 {fill:black;fill-rule:nonzero}
   ]]>
  </style>
 </defs>
 <g id="Camada_x0020_1">
  <metadata id="CorelCorpID_0Corel-Layer"/>
  <rect class="fil0" x="-0.58" y="0.73" width="3041" height="590.58"/>
  <polygon class="fil1" points="3040.42,473.19 1975.53,473.19 1780.03,315.24 2141.59,0.72 3040.42,0.72 "/>
  <g id="_2526068891600">
   <polygon class="fil2" points="3005.42,438.19 3005.42,35.73 2154.69,35.73 1834.5,314.25 1987.91,438.19 "/>
  </g>
  <path class="fil3" d="M1741.64 118.84l-99.79 85.53 91.64 73.32 185.32 -158.85 -177.17 0zm-590.58 0l259.85 283.48 102.64 -87.98 -392.02 -313.62 177.17 0 300.38 240.31 91.65 73.31 198.55 158.85 -177.17 0 -106.92 -85.53 -99.79 85.53 -29.52 0 -147.65 0 -29.53 0 -81.2 -88.59 -232.55 0 77.52 -88.58 73.82 0 -71.76 -78.29 -326.88 373.58 -177.18 0 103.35 -118.12 -14.76 0 -118.12 0 -29.53 0 -88.58 -212.61 -88.59 212.61 -29.53 0 -118.12 0 -29.53 0 -147.64 -354.35 147.64 0 88.59 212.61 88.59 -212.61 29.53 0 118.12 0 29.52 0 88.59 212.61 88.59 -212.61 147.64 0 -134.22 322.14 281.87 -322.14 177.18 0z"/>
  <path class="fil4" d="M2218.37 313.84l90.5 0 0 44.74 -137.27 0 0 -237.27 46.77 0 0 192.53zm240.32 -124.74l43.72 0 0 169.48 -43.72 0 0 -20c-13.11,16.5 -31.52,24.75 -55.25,24.75 -22.6,0 -41.97,-8.65 -58.13,-25.93 -16.16,-17.29 -24.24,-38.48 -24.24,-63.56 0,-25.08 8.08,-46.27 24.24,-63.55 16.16,-17.29 35.53,-25.93 58.13,-25.93 23.73,0 42.14,8.25 55.25,24.74l0 -20zm-80.67 119.15c8.81,8.92 20,13.38 33.55,13.38 13.56,0 24.81,-4.46 33.73,-13.38 8.93,-8.93 13.39,-20.4 13.39,-34.41 0,-14.01 -4.46,-25.48 -13.39,-34.4 -8.92,-8.93 -20.17,-13.39 -33.73,-13.39 -13.55,0 -24.74,4.46 -33.55,13.39 -8.81,8.92 -13.22,20.39 -13.22,34.4 0,14.01 4.41,25.48 13.22,34.41zm262.69 -123.89c22.82,0 42.31,8.64 58.47,25.93 16.15,17.28 24.23,38.47 24.23,63.55 0,25.08 -8.08,46.27 -24.23,63.56 -16.16,17.28 -35.65,25.93 -58.47,25.93 -23.73,0 -42.03,-8.25 -54.91,-24.75l0 20 -43.73 0 0 -237.27 43.73 0 0 87.79c12.88,-16.49 31.18,-24.74 54.91,-24.74zm-41.69 123.89c8.81,8.92 19.99,13.38 33.55,13.38 13.56,0 24.8,-4.46 33.73,-13.38 8.92,-8.93 13.39,-20.4 13.39,-34.41 0,-14.01 -4.47,-25.48 -13.39,-34.4 -8.93,-8.93 -20.17,-13.39 -33.73,-13.39 -13.56,0 -24.74,4.46 -33.55,13.39 -8.82,8.92 -13.22,20.39 -13.22,34.4 0,14.01 4.4,25.48 13.22,34.41zm191.84 -71.02c0,4.52 3,8.2 8.99,11.02 5.98,2.83 13.27,5.31 21.86,7.46 8.59,2.14 17.17,4.86 25.76,8.13 8.59,3.28 15.87,8.76 21.86,16.44 5.99,7.68 8.98,17.29 8.98,28.81 0,17.4 -6.49,30.79 -19.49,40.17 -12.99,9.38 -29.2,14.07 -48.64,14.07 -34.79,0 -58.52,-13.45 -71.17,-40.34l37.96 -21.35c4.97,14.68 16.04,22.03 33.21,22.03 15.6,0 23.39,-4.86 23.39,-14.58 0,-4.52 -2.99,-8.19 -8.98,-11.01 -5.99,-2.83 -13.28,-5.37 -21.86,-7.63 -8.59,-2.26 -17.18,-5.08 -25.76,-8.47 -8.59,-3.39 -15.88,-8.76 -21.87,-16.1 -5.98,-7.35 -8.98,-16.56 -8.98,-27.63 0,-16.72 6.16,-29.88 18.48,-39.49 12.31,-9.6 27.62,-14.4 45.92,-14.4 13.79,0 26.33,3.1 37.63,9.32 11.3,6.21 20.22,15.08 26.77,26.61l-37.28 20.33c-5.42,-11.52 -14.46,-17.28 -27.12,-17.28 -5.65,0 -10.33,1.24 -14.06,3.73 -3.73,2.48 -5.6,5.87 -5.6,10.16z"/>
 </g>
</svg>
