<svg id="mermaid-svg" width="100%" xmlns="http://www.w3.org/2000/svg" style="max-width: 2744px;" viewBox="-50 -10 2744 1887.5" role="graphics-document document" aria-roledescription="sequence" xmlns:xlink="http://www.w3.org/1999/xlink"><rect x="460" y="1446.5" fill="rgb(255, 223, 100)" width="1929" height="190" class="rect"></rect><rect x="460" y="1048" fill="rgb(255, 223, 255)" width="1654" height="192" class="rect"></rect><rect x="260" y="540.5" fill="rgb(191, 223, 255)" width="1379" height="419" class="rect"></rect><rect x="460" y="818.5" fill="rgb(255, 100, 100)" width="779" height="121" class="rect"></rect><g><rect x="2494" y="1801.5" fill="#eaeaea" stroke="#666" width="150" height="65" rx="3" ry="3" class="actor"></rect><text x="2569" y="1834" dominant-baseline="central" alignment-baseline="central" class="actor" style="text-anchor: middle; font-size: 16px; font-weight: 400;"><tspan x="2569" dy="0">Completed</tspan></text></g><g><rect x="2019" y="1801.5" fill="#eaeaea" stroke="#666" width="150" height="65" rx="3" ry="3" class="actor"></rect><text x="2094" y="1834" dominant-baseline="central" alignment-baseline="central" class="actor" style="text-anchor: middle; font-size: 16px; font-weight: 400;"><tspan x="2094" dy="0">In Voting</tspan></text></g><g><rect x="1744" y="1801.5" fill="#eaeaea" stroke="#666" width="150" height="65" rx="3" ry="3" class="actor"></rect><text x="1819" y="1834" dominant-baseline="central" alignment-baseline="central" class="actor" style="text-anchor: middle; font-size: 16px; font-weight: 400;"><tspan x="1819" dy="0">Claimed</tspan></text></g><g><rect x="1544" y="1801.5" fill="#eaeaea" stroke="#666" width="150" height="65" rx="3" ry="3" class="actor"></rect><text x="1619" y="1834" dominant-baseline="central" alignment-baseline="central" class="actor" style="text-anchor: middle; font-size: 16px; font-weight: 400;"><tspan x="1619" dy="0">Accepted</tspan></text></g><g><rect x="1344" y="1801.5" fill="#eaeaea" stroke="#666" width="150" height="65" rx="3" ry="3" class="actor"></rect><text x="1419" y="1834" dominant-baseline="central" alignment-baseline="central" class="actor" style="text-anchor: middle; font-size: 16px; font-weight: 400;"><tspan x="1419" dy="0">In Progress</tspan></text></g><g><rect x="1144" y="1801.5" fill="#eaeaea" stroke="#666" width="150" height="65" rx="3" ry="3" class="actor"></rect><text x="1219" y="1834" dominant-baseline="central" alignment-baseline="central" class="actor" style="text-anchor: middle; font-size: 16px; font-weight: 400;"><tspan x="1219" dy="0">Proposal Review</tspan></text></g><g><rect x="944" y="1801.5" fill="#eaeaea" stroke="#666" width="150" height="65" rx="3" ry="3" class="actor"></rect><text x="1019" y="1834" dominant-baseline="central" alignment-baseline="central" class="actor" style="text-anchor: middle; font-size: 16px; font-weight: 400;"><tspan x="1019" dy="0">Submit</tspan></text></g><g><rect x="680" y="1801.5" fill="#eaeaea" stroke="#666" width="150" height="65" rx="3" ry="3" class="actor"></rect><text x="755" y="1834" dominant-baseline="central" alignment-baseline="central" class="actor" style="text-anchor: middle; font-size: 16px; font-weight: 400;"><tspan x="755" dy="0">Deliverables</tspan></text></g><g><rect x="405" y="1801.5" fill="#eaeaea" stroke="#666" width="150" height="65" rx="3" ry="3" class="actor"></rect><text x="480" y="1834" dominant-baseline="central" alignment-baseline="central" class="actor" style="text-anchor: middle; font-size: 16px; font-weight: 400;"><tspan x="480" dy="0">Failed</tspan></text></g><g><rect x="205" y="1801.5" fill="#eaeaea" stroke="#666" width="150" height="65" rx="3" ry="3" class="actor"></rect><text x="280" y="1834" dominant-baseline="central" alignment-baseline="central" class="actor" style="text-anchor: middle; font-size: 16px; font-weight: 400;"><tspan x="280" dy="0">Draft/Failed Draft</tspan></text></g><g><line id="actor11" x1="2569" y1="5" x2="2569" y2="1801.5" class="200" stroke-width="0.5px" stroke="#999"></line><g id="root-11"><rect x="2494" y="0" fill="#eaeaea" stroke="#666" width="150" height="65" rx="3" ry="3" class="actor"></rect><text x="2569" y="32.5" dominant-baseline="central" alignment-baseline="central" class="actor" style="text-anchor: middle; font-size: 16px; font-weight: 400;"><tspan x="2569" dy="0">Completed</tspan></text></g></g><g><line id="actor9" x1="2094" y1="978" x2="2094" y2="1801.5" class="200" stroke-width="0.5px" stroke="#999"></line><g id="root-9"><rect x="2019" y="973" fill="#eaeaea" stroke="#666" width="150" height="65" rx="3" ry="3" class="actor"></rect><text x="2094" y="1005.5" dominant-baseline="central" alignment-baseline="central" class="actor" style="text-anchor: middle; font-size: 16px; font-weight: 400;"><tspan x="2094" dy="0">In Voting</tspan></text></g></g><g><line id="actor8" x1="1819" y1="5" x2="1819" y2="1801.5" class="200" stroke-width="0.5px" stroke="#999"></line><g id="root-8"><rect x="1744" y="0" fill="#eaeaea" stroke="#666" width="150" height="65" rx="3" ry="3" class="actor"></rect><text x="1819" y="32.5" dominant-baseline="central" alignment-baseline="central" class="actor" style="text-anchor: middle; font-size: 16px; font-weight: 400;"><tspan x="1819" dy="0">Claimed</tspan></text></g></g><g><line id="actor7" x1="1619" y1="5" x2="1619" y2="1801.5" class="200" stroke-width="0.5px" stroke="#999"></line><g id="root-7"><rect x="1544" y="0" fill="#eaeaea" stroke="#666" width="150" height="65" rx="3" ry="3" class="actor"></rect><text x="1619" y="32.5" dominant-baseline="central" alignment-baseline="central" class="actor" style="text-anchor: middle; font-size: 16px; font-weight: 400;"><tspan x="1619" dy="0">Accepted</tspan></text></g></g><g><line id="actor6" x1="1419" y1="5" x2="1419" y2="1801.5" class="200" stroke-width="0.5px" stroke="#999"></line><g id="root-6"><rect x="1344" y="0" fill="#eaeaea" stroke="#666" width="150" height="65" rx="3" ry="3" class="actor"></rect><text x="1419" y="32.5" dominant-baseline="central" alignment-baseline="central" class="actor" style="text-anchor: middle; font-size: 16px; font-weight: 400;"><tspan x="1419" dy="0">In Progress</tspan></text></g></g><g><line id="actor5" x1="1219" y1="5" x2="1219" y2="1801.5" class="200" stroke-width="0.5px" stroke="#999"></line><g id="root-5"><rect x="1144" y="0" fill="#eaeaea" stroke="#666" width="150" height="65" rx="3" ry="3" class="actor"></rect><text x="1219" y="32.5" dominant-baseline="central" alignment-baseline="central" class="actor" style="text-anchor: middle; font-size: 16px; font-weight: 400;"><tspan x="1219" dy="0">Proposal Review</tspan></text></g></g><g><line id="actor4" x1="1019" y1="5" x2="1019" y2="1801.5" class="200" stroke-width="0.5px" stroke="#999"></line><g id="root-4"><rect x="944" y="0" fill="#eaeaea" stroke="#666" width="150" height="65" rx="3" ry="3" class="actor"></rect><text x="1019" y="32.5" dominant-baseline="central" alignment-baseline="central" class="actor" style="text-anchor: middle; font-size: 16px; font-weight: 400;"><tspan x="1019" dy="0">Submit</tspan></text></g></g><g><line id="actor3" x1="755" y1="129.5" x2="755" y2="1801.5" class="200" stroke-width="0.5px" stroke="#999"></line><g id="root-3"><rect x="680" y="124.5" fill="#eaeaea" stroke="#666" width="150" height="65" rx="3" ry="3" class="actor"></rect><text x="755" y="157" dominant-baseline="central" alignment-baseline="central" class="actor" style="text-anchor: middle; font-size: 16px; font-weight: 400;"><tspan x="755" dy="0">Deliverables</tspan></text></g></g><g><line id="actor2" x1="480" y1="5" x2="480" y2="1801.5" class="200" stroke-width="0.5px" stroke="#999"></line><g id="root-2"><rect x="405" y="0" fill="#eaeaea" stroke="#666" width="150" height="65" rx="3" ry="3" class="actor"></rect><text x="480" y="32.5" dominant-baseline="central" alignment-baseline="central" class="actor" style="text-anchor: middle; font-size: 16px; font-weight: 400;"><tspan x="480" dy="0">Failed</tspan></text></g></g><g><line id="actor1" x1="280" y1="5" x2="280" y2="1801.5" class="200" stroke-width="0.5px" stroke="#999"></line><g id="root-1"><rect x="205" y="0" fill="#eaeaea" stroke="#666" width="150" height="65" rx="3" ry="3" class="actor"></rect><text x="280" y="32.5" dominant-baseline="central" alignment-baseline="central" class="actor" style="text-anchor: middle; font-size: 16px; font-weight: 400;"><tspan x="280" dy="0">Draft/Failed Draft</tspan></text></g></g><style>#mermaid-svg{font-family:"trebuchet ms",verdana,arial,sans-serif;font-size:16px;fill:#333;}#mermaid-svg .error-icon{fill:#552222;}#mermaid-svg .error-text{fill:#552222;stroke:#552222;}#mermaid-svg .edge-thickness-normal{stroke-width:2px;}#mermaid-svg .edge-thickness-thick{stroke-width:3.5px;}#mermaid-svg .edge-pattern-solid{stroke-dasharray:0;}#mermaid-svg .edge-pattern-dashed{stroke-dasharray:3;}#mermaid-svg .edge-pattern-dotted{stroke-dasharray:2;}#mermaid-svg .marker{fill:#333333;stroke:#333333;}#mermaid-svg .marker.cross{stroke:#333333;}#mermaid-svg svg{font-family:"trebuchet ms",verdana,arial,sans-serif;font-size:16px;}#mermaid-svg .actor{stroke:hsl(259.6261682243, 59.7765363128%, 87.9019607843%);fill:#ECECFF;}#mermaid-svg text.actor&gt;tspan{fill:black;stroke:none;}#mermaid-svg .actor-line{stroke:grey;}#mermaid-svg .messageLine0{stroke-width:1.5;stroke-dasharray:none;stroke:#333;}#mermaid-svg .messageLine1{stroke-width:1.5;stroke-dasharray:2,2;stroke:#333;}#mermaid-svg #arrowhead path{fill:#333;stroke:#333;}#mermaid-svg .sequenceNumber{fill:white;}#mermaid-svg #sequencenumber{fill:#333;}#mermaid-svg #crosshead path{fill:#333;stroke:#333;}#mermaid-svg .messageText{fill:#333;stroke:none;}#mermaid-svg .labelBox{stroke:hsl(259.6261682243, 59.7765363128%, 87.9019607843%);fill:#ECECFF;}#mermaid-svg .labelText,#mermaid-svg .labelText&gt;tspan{fill:black;stroke:none;}#mermaid-svg .loopText,#mermaid-svg .loopText&gt;tspan{fill:black;stroke:none;}#mermaid-svg .loopLine{stroke-width:2px;stroke-dasharray:2,2;stroke:hsl(259.6261682243, 59.7765363128%, 87.9019607843%);fill:hsl(259.6261682243, 59.7765363128%, 87.9019607843%);}#mermaid-svg .note{stroke:#aaaa33;fill:#fff5ad;}#mermaid-svg .noteText,#mermaid-svg .noteText&gt;tspan{fill:black;stroke:none;}#mermaid-svg .activation0{fill:#f4f4f4;stroke:#666;}#mermaid-svg .activation1{fill:#f4f4f4;stroke:#666;}#mermaid-svg .activation2{fill:#f4f4f4;stroke:#666;}#mermaid-svg .actorPopupMenu{position:absolute;}#mermaid-svg .actorPopupMenuPanel{position:absolute;fill:#ECECFF;box-shadow:0px 8px 16px 0px rgba(0,0,0,0.2);filter:drop-shadow(3px 5px 2px rgb(0 0 0 / 0.4));}#mermaid-svg .actor-man line{stroke:hsl(259.6261682243, 59.7765363128%, 87.9019607843%);fill:#ECECFF;}#mermaid-svg .actor-man circle,#mermaid-svg line{stroke:hsl(259.6261682243, 59.7765363128%, 87.9019607843%);fill:#ECECFF;stroke-width:2px;}#mermaid-svg :root{--mermaid-font-family:"trebuchet ms",verdana,arial,sans-serif;}</style><g></g><defs><symbol id="computer" width="24" height="24"><path transform="scale(.5)" d="M2 2v13h20v-13h-20zm18 11h-16v-9h16v9zm-10.228 6l.466-1h3.524l.467 1h-4.457zm14.228 3h-24l2-6h2.104l-1.33 4h18.45l-1.297-4h2.073l2 6zm-5-10h-14v-7h14v7z"></path></symbol></defs><defs><symbol id="database" fill-rule="evenodd" clip-rule="evenodd"><path transform="scale(.5)" d="M12.258.001l.256.004.255.005.253.008.251.01.249.012.247.015.246.016.242.019.241.02.239.023.236.024.233.027.231.028.229.031.225.032.223.034.22.036.217.038.214.04.211.041.208.043.205.045.201.046.198.048.194.05.191.051.187.053.183.054.18.056.175.057.172.059.168.06.163.061.16.063.155.064.15.066.074.033.073.033.071.034.07.034.069.035.068.035.067.035.066.035.064.036.064.036.062.036.06.036.06.037.058.037.058.037.055.038.055.038.053.038.052.038.051.039.05.039.048.039.047.039.045.04.044.04.043.04.041.04.04.041.039.041.037.041.036.041.034.041.033.042.032.042.03.042.029.042.027.042.026.043.024.043.023.043.021.043.02.043.018.044.017.043.015.044.013.044.012.044.011.045.009.044.007.045.006.045.004.045.002.045.001.045v17l-.001.045-.002.045-.004.045-.006.045-.007.045-.009.044-.011.045-.012.044-.013.044-.015.044-.017.043-.018.044-.02.043-.021.043-.023.043-.024.043-.026.043-.027.042-.029.042-.03.042-.032.042-.033.042-.034.041-.036.041-.037.041-.039.041-.04.041-.041.04-.043.04-.044.04-.045.04-.047.039-.048.039-.05.039-.051.039-.052.038-.053.038-.055.038-.055.038-.058.037-.058.037-.06.037-.06.036-.062.036-.064.036-.064.036-.066.035-.067.035-.068.035-.069.035-.07.034-.071.034-.073.033-.074.033-.15.066-.155.064-.16.063-.163.061-.168.06-.172.059-.175.057-.18.056-.183.054-.187.053-.191.051-.194.05-.198.048-.201.046-.205.045-.208.043-.211.041-.214.04-.217.038-.22.036-.223.034-.225.032-.229.031-.231.028-.233.027-.236.024-.239.023-.241.02-.242.019-.246.016-.247.015-.249.012-.251.01-.253.008-.255.005-.256.004-.258.001-.258-.001-.256-.004-.255-.005-.253-.008-.251-.01-.249-.012-.247-.015-.245-.016-.243-.019-.241-.02-.238-.023-.236-.024-.234-.027-.231-.028-.228-.031-.226-.032-.223-.034-.22-.036-.217-.038-.214-.04-.211-.041-.208-.043-.204-.045-.201-.046-.198-.048-.195-.05-.19-.051-.187-.053-.184-.054-.179-.056-.176-.057-.172-.059-.167-.06-.164-.061-.159-.063-.155-.064-.151-.066-.074-.033-.072-.033-.072-.034-.07-.034-.069-.035-.068-.035-.067-.035-.066-.035-.064-.036-.063-.036-.062-.036-.061-.036-.06-.037-.058-.037-.057-.037-.056-.038-.055-.038-.053-.038-.052-.038-.051-.039-.049-.039-.049-.039-.046-.039-.046-.04-.044-.04-.043-.04-.041-.04-.04-.041-.039-.041-.037-.041-.036-.041-.034-.041-.033-.042-.032-.042-.03-.042-.029-.042-.027-.042-.026-.043-.024-.043-.023-.043-.021-.043-.02-.043-.018-.044-.017-.043-.015-.044-.013-.044-.012-.044-.011-.045-.009-.044-.007-.045-.006-.045-.004-.045-.002-.045-.001-.045v-17l.001-.045.002-.045.004-.045.006-.045.007-.045.009-.044.011-.045.012-.044.013-.044.015-.044.017-.043.018-.044.02-.043.021-.043.023-.043.024-.043.026-.043.027-.042.029-.042.03-.042.032-.042.033-.042.034-.041.036-.041.037-.041.039-.041.04-.041.041-.04.043-.04.044-.04.046-.04.046-.039.049-.039.049-.039.051-.039.052-.038.053-.038.055-.038.056-.038.057-.037.058-.037.06-.037.061-.036.062-.036.063-.036.064-.036.066-.035.067-.035.068-.035.069-.035.07-.034.072-.034.072-.033.074-.033.151-.066.155-.064.159-.063.164-.061.167-.06.172-.059.176-.057.179-.056.184-.054.187-.053.19-.051.195-.05.198-.048.201-.046.204-.045.208-.043.211-.041.214-.04.217-.038.22-.036.223-.034.226-.032.228-.031.231-.028.234-.027.236-.024.238-.023.241-.02.243-.019.245-.016.247-.015.249-.012.251-.01.253-.008.255-.005.256-.004.258-.001.258.001zm-9.258 20.499v.01l.001.021.003.021.004.022.005.021.006.022.007.022.009.023.01.022.011.023.012.023.013.023.015.023.016.024.017.023.018.024.019.024.021.024.022.025.023.024.024.025.052.049.056.05.061.051.066.051.07.051.075.051.079.052.084.052.088.052.092.052.097.052.102.051.105.052.11.052.114.051.119.051.123.051.127.05.131.05.135.05.139.048.144.049.147.047.152.047.155.047.16.045.163.045.167.043.171.043.176.041.178.041.183.039.187.039.19.037.194.035.197.035.202.033.204.031.209.03.212.029.216.027.219.025.222.024.226.021.23.02.233.018.236.016.24.015.243.012.246.01.249.008.253.005.256.004.259.001.26-.001.257-.004.254-.005.25-.008.247-.011.244-.012.241-.014.237-.016.233-.018.231-.021.226-.021.224-.024.22-.026.216-.027.212-.028.21-.031.205-.031.202-.034.198-.034.194-.036.191-.037.187-.039.183-.04.179-.04.175-.042.172-.043.168-.044.163-.045.16-.046.155-.046.152-.047.148-.048.143-.049.139-.049.136-.05.131-.05.126-.05.123-.051.118-.052.114-.051.11-.052.106-.052.101-.052.096-.052.092-.052.088-.053.083-.051.079-.052.074-.052.07-.051.065-.051.06-.051.056-.05.051-.05.023-.024.023-.025.021-.024.02-.024.019-.024.018-.024.017-.024.015-.023.014-.024.013-.023.012-.023.01-.023.01-.022.008-.022.006-.022.006-.022.004-.022.004-.021.001-.021.001-.021v-4.127l-.077.055-.08.053-.083.054-.085.053-.087.052-.09.052-.093.051-.095.05-.097.05-.1.049-.102.049-.105.048-.106.047-.109.047-.111.046-.114.045-.115.045-.118.044-.12.043-.122.042-.124.042-.126.041-.128.04-.13.04-.132.038-.134.038-.135.037-.138.037-.139.035-.142.035-.143.034-.144.033-.147.032-.148.031-.15.03-.151.03-.153.029-.154.027-.156.027-.158.026-.159.025-.161.024-.162.023-.163.022-.165.021-.166.02-.167.019-.169.018-.169.017-.171.016-.173.015-.173.014-.175.013-.175.012-.177.011-.178.01-.179.008-.179.008-.181.006-.182.005-.182.004-.184.003-.184.002h-.37l-.184-.002-.184-.003-.182-.004-.182-.005-.181-.006-.179-.008-.179-.008-.178-.01-.176-.011-.176-.012-.175-.013-.173-.014-.172-.015-.171-.016-.17-.017-.169-.018-.167-.019-.166-.02-.165-.021-.163-.022-.162-.023-.161-.024-.159-.025-.157-.026-.156-.027-.155-.027-.153-.029-.151-.03-.15-.03-.148-.031-.146-.032-.145-.033-.143-.034-.141-.035-.14-.035-.137-.037-.136-.037-.134-.038-.132-.038-.13-.04-.128-.04-.126-.041-.124-.042-.122-.042-.12-.044-.117-.043-.116-.045-.113-.045-.112-.046-.109-.047-.106-.047-.105-.048-.102-.049-.1-.049-.097-.05-.095-.05-.093-.052-.09-.051-.087-.052-.085-.053-.083-.054-.08-.054-.077-.054v4.127zm0-5.654v.011l.001.021.003.021.004.021.005.022.006.022.007.022.009.022.01.022.011.023.012.023.013.023.015.024.016.023.017.024.018.024.019.024.021.024.022.024.023.025.024.024.052.05.056.05.061.05.066.051.07.051.075.052.079.051.084.052.088.052.092.052.097.052.102.052.105.052.11.051.114.051.119.052.123.05.127.051.131.05.135.049.139.049.144.048.147.048.152.047.155.046.16.045.163.045.167.044.171.042.176.042.178.04.183.04.187.038.19.037.194.036.197.034.202.033.204.032.209.03.212.028.216.027.219.025.222.024.226.022.23.02.233.018.236.016.24.014.243.012.246.01.249.008.253.006.256.003.259.001.26-.001.257-.003.254-.006.25-.008.247-.01.244-.012.241-.015.237-.016.233-.018.231-.02.226-.022.224-.024.22-.025.216-.027.212-.029.21-.03.205-.032.202-.033.198-.035.194-.036.191-.037.187-.039.183-.039.179-.041.175-.042.172-.043.168-.044.163-.045.16-.045.155-.047.152-.047.148-.048.143-.048.139-.05.136-.049.131-.05.126-.051.123-.051.118-.051.114-.052.11-.052.106-.052.101-.052.096-.052.092-.052.088-.052.083-.052.079-.052.074-.051.07-.052.065-.051.06-.05.056-.051.051-.049.023-.025.023-.024.021-.025.02-.024.019-.024.018-.024.017-.024.015-.023.014-.023.013-.024.012-.022.01-.023.01-.023.008-.022.006-.022.006-.022.004-.021.004-.022.001-.021.001-.021v-4.139l-.077.054-.08.054-.083.054-.085.052-.087.053-.09.051-.093.051-.095.051-.097.05-.1.049-.102.049-.105.048-.106.047-.109.047-.111.046-.114.045-.115.044-.118.044-.12.044-.122.042-.124.042-.126.041-.128.04-.13.039-.132.039-.134.038-.135.037-.138.036-.139.036-.142.035-.143.033-.144.033-.147.033-.148.031-.15.03-.151.03-.153.028-.154.028-.156.027-.158.026-.159.025-.161.024-.162.023-.163.022-.165.021-.166.02-.167.019-.169.018-.169.017-.171.016-.173.015-.173.014-.175.013-.175.012-.177.011-.178.009-.179.009-.179.007-.181.007-.182.005-.182.004-.184.003-.184.002h-.37l-.184-.002-.184-.003-.182-.004-.182-.005-.181-.007-.179-.007-.179-.009-.178-.009-.176-.011-.176-.012-.175-.013-.173-.014-.172-.015-.171-.016-.17-.017-.169-.018-.167-.019-.166-.02-.165-.021-.163-.022-.162-.023-.161-.024-.159-.025-.157-.026-.156-.027-.155-.028-.153-.028-.151-.03-.15-.03-.148-.031-.146-.033-.145-.033-.143-.033-.141-.035-.14-.036-.137-.036-.136-.037-.134-.038-.132-.039-.13-.039-.128-.04-.126-.041-.124-.042-.122-.043-.12-.043-.117-.044-.116-.044-.113-.046-.112-.046-.109-.046-.106-.047-.105-.048-.102-.049-.1-.049-.097-.05-.095-.051-.093-.051-.09-.051-.087-.053-.085-.052-.083-.054-.08-.054-.077-.054v4.139zm0-5.666v.011l.001.02.003.022.004.021.005.022.006.021.007.022.009.023.01.022.011.023.012.023.013.023.015.023.016.024.017.024.018.023.019.024.021.025.022.024.023.024.024.025.052.05.056.05.061.05.066.051.07.051.075.052.079.051.084.052.088.052.092.052.097.052.102.052.105.051.11.052.114.051.119.051.123.051.127.05.131.05.135.05.139.049.144.048.147.048.152.047.155.046.16.045.163.045.167.043.171.043.176.042.178.04.183.04.187.038.19.037.194.036.197.034.202.033.204.032.209.03.212.028.216.027.219.025.222.024.226.021.23.02.233.018.236.017.24.014.243.012.246.01.249.008.253.006.256.003.259.001.26-.001.257-.003.254-.006.25-.008.247-.01.244-.013.241-.014.237-.016.233-.018.231-.02.226-.022.224-.024.22-.025.216-.027.212-.029.21-.03.205-.032.202-.033.198-.035.194-.036.191-.037.187-.039.183-.039.179-.041.175-.042.172-.043.168-.044.163-.045.16-.045.155-.047.152-.047.148-.048.143-.049.139-.049.136-.049.131-.051.126-.05.123-.051.118-.052.114-.051.11-.052.106-.052.101-.052.096-.052.092-.052.088-.052.083-.052.079-.052.074-.052.07-.051.065-.051.06-.051.056-.05.051-.049.023-.025.023-.025.021-.024.02-.024.019-.024.018-.024.017-.024.015-.023.014-.024.013-.023.012-.023.01-.022.01-.023.008-.022.006-.022.006-.022.004-.022.004-.021.001-.021.001-.021v-4.153l-.077.054-.08.054-.083.053-.085.053-.087.053-.09.051-.093.051-.095.051-.097.05-.1.049-.102.048-.105.048-.106.048-.109.046-.111.046-.114.046-.115.044-.118.044-.12.043-.122.043-.124.042-.126.041-.128.04-.13.039-.132.039-.134.038-.135.037-.138.036-.139.036-.142.034-.143.034-.144.033-.147.032-.148.032-.15.03-.151.03-.153.028-.154.028-.156.027-.158.026-.159.024-.161.024-.162.023-.163.023-.165.021-.166.02-.167.019-.169.018-.169.017-.171.016-.173.015-.173.014-.175.013-.175.012-.177.01-.178.01-.179.009-.179.007-.181.006-.182.006-.182.004-.184.003-.184.001-.185.001-.185-.001-.184-.001-.184-.003-.182-.004-.182-.006-.181-.006-.179-.007-.179-.009-.178-.01-.176-.01-.176-.012-.175-.013-.173-.014-.172-.015-.171-.016-.17-.017-.169-.018-.167-.019-.166-.02-.165-.021-.163-.023-.162-.023-.161-.024-.159-.024-.157-.026-.156-.027-.155-.028-.153-.028-.151-.03-.15-.03-.148-.032-.146-.032-.145-.033-.143-.034-.141-.034-.14-.036-.137-.036-.136-.037-.134-.038-.132-.039-.13-.039-.128-.041-.126-.041-.124-.041-.122-.043-.12-.043-.117-.044-.116-.044-.113-.046-.112-.046-.109-.046-.106-.048-.105-.048-.102-.048-.1-.05-.097-.049-.095-.051-.093-.051-.09-.052-.087-.052-.085-.053-.083-.053-.08-.054-.077-.054v4.153zm8.74-8.179l-.257.004-.254.005-.25.008-.247.011-.244.012-.241.014-.237.016-.233.018-.231.021-.226.022-.224.023-.22.026-.216.027-.212.028-.21.031-.205.032-.202.033-.198.034-.194.036-.191.038-.187.038-.183.04-.179.041-.175.042-.172.043-.168.043-.163.045-.16.046-.155.046-.152.048-.148.048-.143.048-.139.049-.136.05-.131.05-.126.051-.123.051-.118.051-.114.052-.11.052-.106.052-.101.052-.096.052-.092.052-.088.052-.083.052-.079.052-.074.051-.07.052-.065.051-.06.05-.056.05-.051.05-.023.025-.023.024-.021.024-.02.025-.019.024-.018.024-.017.023-.015.024-.014.023-.013.023-.012.023-.01.023-.01.022-.008.022-.006.023-.006.021-.004.022-.004.021-.001.021-.001.021.001.021.001.021.004.021.004.022.006.021.006.023.008.022.01.022.01.023.012.023.013.023.014.023.015.024.017.023.018.024.019.024.02.025.021.024.023.024.023.025.051.05.056.05.06.05.065.051.07.052.074.051.079.052.083.052.088.052.092.052.096.052.101.052.106.052.11.052.114.052.118.051.123.051.126.051.131.05.136.05.139.049.143.048.148.048.152.048.155.046.16.046.163.045.168.043.172.043.175.042.179.041.183.04.187.038.191.038.194.036.198.034.202.033.205.032.21.031.212.028.216.027.22.026.224.023.226.022.231.021.233.018.237.016.241.014.244.012.247.011.25.008.254.005.257.004.26.001.26-.001.257-.004.254-.005.25-.008.247-.011.244-.012.241-.014.237-.016.233-.018.231-.021.226-.022.224-.023.22-.026.216-.027.212-.028.21-.031.205-.032.202-.033.198-.034.194-.036.191-.038.187-.038.183-.04.179-.041.175-.042.172-.043.168-.043.163-.045.16-.046.155-.046.152-.048.148-.048.143-.048.139-.049.136-.05.131-.05.126-.051.123-.051.118-.051.114-.052.11-.052.106-.052.101-.052.096-.052.092-.052.088-.052.083-.052.079-.052.074-.051.07-.052.065-.051.06-.05.056-.05.051-.05.023-.025.023-.024.021-.024.02-.025.019-.024.018-.024.017-.023.015-.024.014-.023.013-.023.012-.023.01-.023.01-.022.008-.022.006-.023.006-.021.004-.022.004-.021.001-.021.001-.021-.001-.021-.001-.021-.004-.021-.004-.022-.006-.021-.006-.023-.008-.022-.01-.022-.01-.023-.012-.023-.013-.023-.014-.023-.015-.024-.017-.023-.018-.024-.019-.024-.02-.025-.021-.024-.023-.024-.023-.025-.051-.05-.056-.05-.06-.05-.065-.051-.07-.052-.074-.051-.079-.052-.083-.052-.088-.052-.092-.052-.096-.052-.101-.052-.106-.052-.11-.052-.114-.052-.118-.051-.123-.051-.126-.051-.131-.05-.136-.05-.139-.049-.143-.048-.148-.048-.152-.048-.155-.046-.16-.046-.163-.045-.168-.043-.172-.043-.175-.042-.179-.041-.183-.04-.187-.038-.191-.038-.194-.036-.198-.034-.202-.033-.205-.032-.21-.031-.212-.028-.216-.027-.22-.026-.224-.023-.226-.022-.231-.021-.233-.018-.237-.016-.241-.014-.244-.012-.247-.011-.25-.008-.254-.005-.257-.004-.26-.001-.26.001z"></path></symbol></defs><defs><symbol id="clock" width="24" height="24"><path transform="scale(.5)" d="M12 2c5.514 0 10 4.486 10 10s-4.486 10-10 10-10-4.486-10-10 4.486-10 10-10zm0-2c-6.627 0-12 5.373-12 12s5.373 12 12 12 12-5.373 12-12-5.373-12-12-12zm5.848 12.459c.202.038.202.333.001.372-1.907.361-6.045 1.111-6.547 1.111-.719 0-1.301-.582-1.301-1.301 0-.512.77-5.447 1.125-7.445.034-.192.312-.181.343.014l.985 6.238 5.394 1.011z"></path></symbol></defs><defs><marker id="arrowhead" refX="9" refY="5" markerUnits="userSpaceOnUse" markerWidth="12" markerHeight="12" orient="auto"><path d="M 0 0 L 10 5 L 0 10 z"></path></marker></defs><defs><marker id="crosshead" markerWidth="15" markerHeight="8" orient="auto" refX="4" refY="5"><path fill="none" stroke="#000000" stroke-width="1pt" d="M 1,2 L 6,7 M 6,2 L 1,7" style="stroke-dasharray: 0, 0;"></path></marker></defs><defs><marker id="filled-head" refX="18" refY="7" markerWidth="20" markerHeight="28" orient="auto"><path d="M 18,7 L9,13 L14,7 L9,1 Z"></path></marker></defs><defs><marker id="sequencenumber" refX="15" refY="15" markerWidth="60" markerHeight="40" orient="auto"><circle cx="15" cy="15" r="6"></circle></marker></defs><g><line x1="670" y1="199.5" x2="840" y2="199.5" class="loopLine"></line><line x1="840" y1="199.5" x2="840" y2="364.5" class="loopLine"></line><line x1="670" y1="364.5" x2="840" y2="364.5" class="loopLine"></line><line x1="670" y1="199.5" x2="670" y2="364.5" class="loopLine"></line><polygon points="670,199.5 720,199.5 720,212.5 711.6,219.5 670,219.5" class="labelBox"></polygon><text x="695" y="212" text-anchor="middle" dominant-baseline="middle" alignment-baseline="middle" class="labelText" style="font-size: 16px; font-weight: 400;">loop</text><text x="780" y="217" text-anchor="middle" class="loopText" style="font-size: 16px; font-weight: 400;"><tspan x="780">[Add</tspan></text><text x="780" y="236" text-anchor="middle" class="loopText" style="font-size: 16px; font-weight: 400;"><tspan x="780">new/edit/rem-</tspan></text><text x="780" y="255" text-anchor="middle" class="loopText" style="font-size: 16px; font-weight: 400;"><tspan x="780">ove</tspan></text><text x="780" y="274" text-anchor="middle" class="loopText" style="font-size: 16px; font-weight: 400;"><tspan x="780">deliverables]</tspan></text></g><g><line x1="470" y1="838.5" x2="1229" y2="838.5" class="loopLine"></line><line x1="1229" y1="838.5" x2="1229" y2="929.5" class="loopLine"></line><line x1="470" y1="929.5" x2="1229" y2="929.5" class="loopLine"></line><line x1="470" y1="838.5" x2="470" y2="929.5" class="loopLine"></line><polygon points="470,838.5 520,838.5 520,851.5 511.6,858.5 470,858.5" class="labelBox"></polygon><text x="495" y="851" text-anchor="middle" dominant-baseline="middle" alignment-baseline="middle" class="labelText" style="font-size: 16px; font-weight: 400;">break</text><text x="874.5" y="856" text-anchor="middle" class="loopText" style="font-size: 16px; font-weight: 400;"><tspan x="874.5">[Proposal can't be changed]</tspan></text></g><g><line x1="270" y1="560.5" x2="1629" y2="560.5" class="loopLine"></line><line x1="1629" y1="560.5" x2="1629" y2="949.5" class="loopLine"></line><line x1="270" y1="949.5" x2="1629" y2="949.5" class="loopLine"></line><line x1="270" y1="560.5" x2="270" y2="949.5" class="loopLine"></line><line x1="270" y1="656.5" x2="1629" y2="656.5" class="loopLine" style="stroke-dasharray: 3, 3;"></line><line x1="270" y1="727.5" x2="1629" y2="727.5" class="loopLine" style="stroke-dasharray: 3, 3;"></line><line x1="270" y1="798.5" x2="1629" y2="798.5" class="loopLine" style="stroke-dasharray: 3, 3;"></line><polygon points="270,560.5 320,560.5 320,573.5 311.6,580.5 270,580.5" class="labelBox"></polygon><text x="295" y="573" text-anchor="middle" dominant-baseline="middle" alignment-baseline="middle" class="labelText" style="font-size: 16px; font-weight: 400;">critical</text><text x="974.5" y="578" text-anchor="middle" class="loopText" style="font-size: 16px; font-weight: 400;"><tspan x="974.5">[Admin revision]</tspan></text></g><g><line x1="470" y1="1068" x2="2104" y2="1068" class="loopLine"></line><line x1="2104" y1="1068" x2="2104" y2="1230" class="loopLine"></line><line x1="470" y1="1230" x2="2104" y2="1230" class="loopLine"></line><line x1="470" y1="1068" x2="470" y2="1230" class="loopLine"></line><line x1="470" y1="1164" x2="2104" y2="1164" class="loopLine" style="stroke-dasharray: 3, 3;"></line><polygon points="470,1068 520,1068 520,1081 511.6,1088 470,1088" class="labelBox"></polygon><text x="495" y="1081" text-anchor="middle" dominant-baseline="middle" alignment-baseline="middle" class="labelText" style="font-size: 16px; font-weight: 400;">critical</text><text x="1312" y="1086" text-anchor="middle" class="loopText" style="font-size: 16px; font-weight: 400;"><tspan x="1312">[Community voting]</tspan></text></g><g><line x1="470" y1="1466.5" x2="2379" y2="1466.5" class="loopLine"></line><line x1="2379" y1="1466.5" x2="2379" y2="1626.5" class="loopLine"></line><line x1="470" y1="1626.5" x2="2379" y2="1626.5" class="loopLine"></line><line x1="470" y1="1466.5" x2="470" y2="1626.5" class="loopLine"></line><line x1="470" y1="1562.5" x2="2379" y2="1562.5" class="loopLine" style="stroke-dasharray: 3, 3;"></line><polygon points="470,1466.5 520,1466.5 520,1479.5 511.6,1486.5 470,1486.5" class="labelBox"></polygon><text x="495" y="1479" text-anchor="middle" dominant-baseline="middle" alignment-baseline="middle" class="labelText" style="font-size: 16px; font-weight: 400;">critical</text><text x="1449.5" y="1484" text-anchor="middle" class="loopText" style="font-size: 16px; font-weight: 400;"><tspan x="1449.5">[Reviewer approval]</tspan></text></g><g><line x1="65" y1="1646.5" x2="1829" y2="1646.5" class="loopLine"></line><line x1="1829" y1="1646.5" x2="1829" y2="1735.5" class="loopLine"></line><line x1="65" y1="1735.5" x2="1829" y2="1735.5" class="loopLine"></line><line x1="65" y1="1646.5" x2="65" y2="1735.5" class="loopLine"></line><polygon points="65,1646.5 115,1646.5 115,1659.5 106.6,1666.5 65,1666.5" class="labelBox"></polygon><text x="90" y="1659" text-anchor="middle" dominant-baseline="middle" alignment-baseline="middle" class="labelText" style="font-size: 16px; font-weight: 400;">loop</text><text x="972" y="1664" text-anchor="middle" class="loopText" style="font-size: 16px; font-weight: 400;"><tspan x="972">[Claim Deliverable until finished]</tspan></text></g><line id="actor0" x1="75" y1="80" x2="75" y2="1801.5" class="200" stroke-width="0.5px" stroke="#999"></line><g class="actor-man"><line id="actor-man-torso0" x1="75" y1="25" x2="75" y2="45"></line><line id="actor-man-arms0" x1="57" y1="33" x2="93" y2="33"></line><line x1="57" y1="60" x2="75" y2="45"></line><line x1="75" y1="45" x2="91" y2="60"></line><circle cx="75" cy="10" r="15" width="150" height="65"></circle><text x="75" y="67.5" dominant-baseline="central" alignment-baseline="central" class="actor" style="text-anchor: middle; font-size: 16px; font-weight: 400;"><tspan x="75" dy="0">WaxLabs User</tspan></text></g><line id="actor10" x1="2369" y1="1377.5" x2="2369" y2="1801.5" class="200" stroke-width="0.5px" stroke="#999"></line><g class="actor-man"><line id="actor-man-torso10" x1="2369" y1="1322.5" x2="2369" y2="1342.5"></line><line id="actor-man-arms10" x1="2351" y1="1330.5" x2="2387" y2="1330.5"></line><line x1="2351" y1="1357.5" x2="2369" y2="1342.5"></line><line x1="2369" y1="1342.5" x2="2385" y2="1357.5"></line><circle cx="2369" cy="1307.5" r="15" width="150" height="65"></circle><text x="2369" y="1365" dominant-baseline="central" alignment-baseline="central" class="actor" style="text-anchor: middle; font-size: 16px; font-weight: 400;"><tspan x="2369" dy="0">WaxLabs Reviewer</tspan></text></g><text x="178" y="80" text-anchor="middle" dominant-baseline="middle" alignment-baseline="middle" class="messageText" dy="1em" style="font-size: 16px; font-weight: 400;">Draft a new proposal</text><line x1="75" y1="111" x2="280" y2="111" class="messageLine0" stroke-width="2" stroke="none" marker-end="url(#arrowhead)" marker-start="url(#sequencenumber)" style="fill: none;"></line><text x="75" y="115" font-family="sans-serif" font-size="12px" text-anchor="middle" class="sequenceNumber">1</text><text x="479" y="126" text-anchor="middle" dominant-baseline="middle" alignment-baseline="middle" class="messageText" dy="1em" style="font-size: 16px; font-weight: 400;">Adding Deliverables</text><line x1="280" y1="157" x2="677" y2="157" class="messageLine0" stroke-width="2" stroke="none" marker-end="url(#arrowhead)" marker-start="url(#sequencenumber)" style="fill: none;"></line><text x="280" y="161" font-family="sans-serif" font-size="12px" text-anchor="middle" class="sequenceNumber">2</text><text x="755" y="300" text-anchor="middle" dominant-baseline="middle" alignment-baseline="middle" class="messageText" dy="1em" style="font-size: 16px; font-weight: 400;">​</text><path d="M 755,294.5 C 815,284.5 815,324.5 755,314.5" class="messageLine0" stroke-width="2" stroke="none" marker-end="url(#arrowhead)" marker-start="url(#sequencenumber)" style="fill: none;"></path><text x="755" y="298.5" font-family="sans-serif" font-size="12px" text-anchor="middle" class="sequenceNumber">3</text><text x="887" y="380" text-anchor="middle" dominant-baseline="middle" alignment-baseline="middle" class="messageText" dy="1em" style="font-size: 16px; font-weight: 400;">Submit to the WaxLabs admin</text><line x1="755" y1="408.5" x2="1019" y2="408.5" class="messageLine0" stroke-width="2" stroke="none" marker-end="url(#arrowhead)" marker-start="url(#sequencenumber)" style="fill: none;"></line><text x="755" y="412.5" font-family="sans-serif" font-size="12px" text-anchor="middle" class="sequenceNumber">4</text><text x="1119" y="424" text-anchor="middle" dominant-baseline="middle" alignment-baseline="middle" class="messageText" dy="1em" style="font-size: 16px; font-weight: 400;">Proposal submitted</text><line x1="1019" y1="454.5" x2="1219" y2="454.5" class="messageLine1" stroke-width="2" stroke="none" marker-end="url(#arrowhead)" marker-start="url(#sequencenumber)" style="stroke-dasharray: 3, 3; fill: none;"></line><text x="1019" y="458.5" font-family="sans-serif" font-size="12px" text-anchor="middle" class="sequenceNumber">5</text><text x="1219" y="470" text-anchor="middle" dominant-baseline="middle" alignment-baseline="middle" class="messageText" dy="1em" style="font-size: 16px; font-weight: 400;">Admin Set the Proposal Reviewer</text><path d="M 1219,500.5 C 1279,490.5 1279,530.5 1219,520.5" class="messageLine0" stroke-width="2" stroke="none" marker-end="url(#arrowhead)" marker-start="url(#sequencenumber)" style="fill: none;"></path><text x="1219" y="504.5" font-family="sans-serif" font-size="12px" text-anchor="middle" class="sequenceNumber">6</text><text x="1319" y="611" text-anchor="middle" dominant-baseline="middle" alignment-baseline="middle" class="messageText" dy="1em" style="font-size: 16px; font-weight: 400;">Aproves proposal</text><line x1="1219" y1="641.5" x2="1419" y2="641.5" class="messageLine1" stroke-width="2" stroke="none" marker-end="url(#arrowhead)" marker-start="url(#sequencenumber)" style="stroke-dasharray: 3, 3; fill: none;"></line><text x="1219" y="645.5" font-family="sans-serif" font-size="12px" text-anchor="middle" class="sequenceNumber">7</text><text x="1419" y="682" text-anchor="middle" dominant-baseline="middle" alignment-baseline="middle" class="messageText" dy="1em" style="font-size: 16px; font-weight: 400;">Approve with Voting</text><line x1="1219" y1="712.5" x2="1619" y2="712.5" class="messageLine1" stroke-width="2" stroke="none" marker-end="url(#arrowhead)" marker-start="url(#sequencenumber)" style="stroke-dasharray: 3, 3; fill: none;"></line><text x="1219" y="716.5" font-family="sans-serif" font-size="12px" text-anchor="middle" class="sequenceNumber">8</text><text x="750" y="753" text-anchor="middle" dominant-baseline="middle" alignment-baseline="middle" class="messageText" dy="1em" style="font-size: 16px; font-weight: 400;">Rejects proposal with editing</text><line x1="1219" y1="783.5" x2="280" y2="783.5" class="messageLine1" stroke-width="2" stroke="none" marker-end="url(#arrowhead)" marker-start="url(#sequencenumber)" style="stroke-dasharray: 3, 3; fill: none;"></line><text x="1219" y="787.5" font-family="sans-serif" font-size="12px" text-anchor="middle" class="sequenceNumber">9</text><text x="850" y="889" text-anchor="middle" dominant-baseline="middle" alignment-baseline="middle" class="messageText" dy="1em" style="font-size: 16px; font-weight: 400;">Rejects proposal</text><line x1="1219" y1="919.5" x2="480" y2="919.5" class="messageLine1" stroke-width="2" stroke="none" marker-end="url(#arrowhead)" marker-start="url(#sequencenumber)" style="stroke-dasharray: 3, 3; fill: none;"></line><text x="1219" y="923.5" font-family="sans-serif" font-size="12px" text-anchor="middle" class="sequenceNumber">10</text><text x="1818" y="975" text-anchor="middle" dominant-baseline="middle" alignment-baseline="middle" class="messageText" dy="1em" style="font-size: 16px; font-weight: 400;">Begin Voting</text><line x1="1619" y1="1005.5" x2="2016" y2="1005.5" class="messageLine1" stroke-width="2" stroke="none" marker-end="url(#arrowhead)" marker-start="url(#sequencenumber)" style="stroke-dasharray: 3, 3; fill: none;"></line><text x="1619" y="1009.5" font-family="sans-serif" font-size="12px" text-anchor="middle" class="sequenceNumber">11</text><text x="1757" y="1118" text-anchor="middle" dominant-baseline="middle" alignment-baseline="middle" class="messageText" dy="1em" style="font-size: 16px; font-weight: 400;">Voting passed</text><line x1="2094" y1="1149" x2="1419" y2="1149" class="messageLine0" stroke-width="2" stroke="none" marker-end="url(#arrowhead)" marker-start="url(#sequencenumber)" style="fill: none;"></line><text x="2094" y="1153" font-family="sans-serif" font-size="12px" text-anchor="middle" class="sequenceNumber">12</text><text x="1287" y="1189" text-anchor="middle" dominant-baseline="middle" alignment-baseline="middle" class="messageText" dy="1em" style="font-size: 16px; font-weight: 400;">Voting failed</text><line x1="2094" y1="1220" x2="480" y2="1220" class="messageLine0" stroke-width="2" stroke="none" marker-end="url(#arrowhead)" marker-start="url(#sequencenumber)" style="fill: none;"></line><text x="2094" y="1224" font-family="sans-serif" font-size="12px" text-anchor="middle" class="sequenceNumber">13</text><text x="747" y="1255" text-anchor="middle" dominant-baseline="middle" alignment-baseline="middle" class="messageText" dy="1em" style="font-size: 16px; font-weight: 400;">Submit Report for Deliverable</text><line x1="75" y1="1286" x2="1419" y2="1286" class="messageLine0" stroke-width="2" stroke="none" marker-end="url(#arrowhead)" marker-start="url(#sequencenumber)" style="fill: none;"></line><text x="75" y="1290" font-family="sans-serif" font-size="12px" text-anchor="middle" class="sequenceNumber">14</text><text x="1884" y="1301" text-anchor="middle" dominant-baseline="middle" alignment-baseline="middle" class="messageText" dy="1em" style="font-size: 16px; font-weight: 400;">Review Deliverable</text><line x1="1419" y1="1330" x2="2348" y2="1330" class="messageLine1" stroke-width="2" stroke="none" marker-start="url(#sequencenumber)" style="stroke-dasharray: 3, 3; fill: none;"></line><text x="1419" y="1334" font-family="sans-serif" font-size="12px" text-anchor="middle" class="sequenceNumber">15</text><text x="2369" y="1378" text-anchor="middle" dominant-baseline="middle" alignment-baseline="middle" class="messageText" dy="1em" style="font-size: 16px; font-weight: 400;">Review Deliverable</text><path d="M 2369,1406.5 C 2429,1396.5 2429,1436.5 2369,1426.5" class="messageLine0" stroke-width="2" stroke="none" marker-end="url(#arrowhead)" marker-start="url(#sequencenumber)" style="fill: none;"></path><text x="2369" y="1410.5" font-family="sans-serif" font-size="12px" text-anchor="middle" class="sequenceNumber">16</text><text x="2094" y="1517" text-anchor="middle" dominant-baseline="middle" alignment-baseline="middle" class="messageText" dy="1em" style="font-size: 16px; font-weight: 400;">Approved</text><line x1="2369" y1="1547.5" x2="1819" y2="1547.5" class="messageLine0" stroke-width="2" stroke="none" marker-end="url(#arrowhead)" marker-start="url(#sequencenumber)" style="fill: none;"></line><text x="2369" y="1551.5" font-family="sans-serif" font-size="12px" text-anchor="middle" class="sequenceNumber">17</text><text x="1425" y="1588" text-anchor="middle" dominant-baseline="middle" alignment-baseline="middle" class="messageText" dy="1em" style="font-size: 16px; font-weight: 400;">Failed</text><line x1="2369" y1="1616.5" x2="480" y2="1616.5" class="messageLine0" stroke-width="2" stroke="none" marker-end="url(#arrowhead)" marker-start="url(#sequencenumber)" style="fill: none;"></line><text x="2369" y="1620.5" font-family="sans-serif" font-size="12px" text-anchor="middle" class="sequenceNumber">18</text><text x="947" y="1697" text-anchor="middle" dominant-baseline="middle" alignment-baseline="middle" class="messageText" dy="1em" style="font-size: 16px; font-weight: 400;">Claim Deliverable</text><line x1="1819" y1="1725.5" x2="75" y2="1725.5" class="messageLine0" stroke-width="2" stroke="none" marker-end="url(#arrowhead)" marker-start="url(#sequencenumber)" style="fill: none;"></line><text x="1819" y="1729.5" font-family="sans-serif" font-size="12px" text-anchor="middle" class="sequenceNumber">19</text><text x="1994" y="1751" text-anchor="middle" dominant-baseline="middle" alignment-baseline="middle" class="messageText" dy="1em" style="font-size: 16px; font-weight: 400;">Proposal Completed</text><line x1="1419" y1="1781.5" x2="2569" y2="1781.5" class="messageLine0" stroke-width="2" stroke="none" marker-end="url(#arrowhead)" marker-start="url(#sequencenumber)" style="fill: none;"></line><text x="1419" y="1785.5" font-family="sans-serif" font-size="12px" text-anchor="middle" class="sequenceNumber">20</text><g class="actor-man"><line id="actor-man-torso11" x1="75" y1="1826.5" x2="75" y2="1846.5"></line><line id="actor-man-arms11" x1="57" y1="1834.5" x2="93" y2="1834.5"></line><line x1="57" y1="1861.5" x2="75" y2="1846.5"></line><line x1="75" y1="1846.5" x2="91" y2="1861.5"></line><circle cx="75" cy="1811.5" r="15" width="150" height="65"></circle><text x="75" y="1869" dominant-baseline="central" alignment-baseline="central" class="actor" style="text-anchor: middle; font-size: 16px; font-weight: 400;"><tspan x="75" dy="0">WaxLabs User</tspan></text></g><g class="actor-man"><line id="actor-man-torso11" x1="2369" y1="1826.5" x2="2369" y2="1846.5"></line><line id="actor-man-arms11" x1="2351" y1="1834.5" x2="2387" y2="1834.5"></line><line x1="2351" y1="1861.5" x2="2369" y2="1846.5"></line><line x1="2369" y1="1846.5" x2="2385" y2="1861.5"></line><circle cx="2369" cy="1811.5" r="15" width="150" height="65"></circle><text x="2369" y="1869" dominant-baseline="central" alignment-baseline="central" class="actor" style="text-anchor: middle; font-size: 16px; font-weight: 400;"><tspan x="2369" dy="0">WaxLabs Reviewer</tspan></text></g><style>@import url("https://cdnjs.cloudflare.com/ajax/libs/font-awesome/6.4.0/css/all.min.css");</style></svg>